<?xml version="1.0" standalone="no"?>
 <!DOCTYPE svg PUBLIC "-//W3C//DTD SVG 1.1//EN" 
 "http://www.w3.org/Graphics/SVG/1.1/DTD/svg11.dtd"> 
<svg xmlns="http://www.w3.org/2000/svg" version="1.1" 
    width="11.9812cm" height="8.55218cm" viewBox="0 0 47170 33670 ">
<title>SVG Picture created as AVR-ZIF-Prog-B.SilkS.svg date 2016/08/05 14:10:25 </title>
  <desc>Picture generated by PCBNEW </desc>
<g style="fill:#000000; fill-opacity:1;stroke:#000000; stroke-opacity:1;
stroke-linecap:round; stroke-linejoin:round; "
 transform="translate(0 0) scale(1 1)">
</g>
<g style="fill:#000000; fill-opacity:0.0; 
stroke:#000000; stroke-width:-0.000393701; stroke-opacity:1; 
stroke-linecap:round; stroke-linejoin:round;">
</g>
<g style="fill:#000000; fill-opacity:0.0; 
stroke:#000000; stroke-width:118.11; stroke-opacity:1; 
stroke-linecap:round; stroke-linejoin:round;">
<path d="M10889 21270
L10861 21242
L10777 21186
L10721 21158
L10636 21129
L10496 21101
L10383 21101
L10242 21129
L10158 21158
L10102 21186
L10017 21242
L9989 21270
" />
<path d="M10608 21832
L10636 21804
L10664 21720
L10664 21664
L10636 21579
L10580 21523
L10524 21495
L10411 21467
L10327 21467
L10214 21495
L10158 21523
L10102 21579
L10074 21664
L10074 21720
L10102 21804
L10130 21832
" />
<path d="M10889 22029
L10861 22057
L10777 22114
L10721 22142
L10636 22170
L10496 22198
L10383 22198
L10242 22170
L10158 22142
L10102 22114
L10017 22057
L9989 22029
" />
<path d="M10074 23098
L10496 23098
L10580 23070
L10636 23014
L10664 22929
L10664 22873
" />
<path d="M10608 23379
L10636 23407
L10664 23379
L10636 23351
L10608 23379
L10664 23379
" />
<path d="M10355 24307
L10383 24392
L10411 24420
L10467 24448
L10552 24448
L10608 24420
L10636 24392
L10664 24335
L10664 24110
L10074 24110
L10074 24307
L10102 24363
L10130 24392
L10186 24420
L10242 24420
L10299 24392
L10327 24363
L10355 24307
L10355 24110
" />
<path d="M10664 24785
L10636 24729
L10608 24701
L10552 24673
L10383 24673
L10327 24701
L10299 24729
L10271 24785
L10271 24870
L10299 24926
L10327 24954
L10383 24982
L10552 24982
L10608 24954
L10636 24926
L10664 24870
L10664 24785
" />
<path d="M10636 25460
L10664 25404
L10664 25291
L10636 25235
L10580 25207
L10355 25207
L10299 25235
L10271 25291
L10271 25404
L10299 25460
L10355 25488
L10411 25488
L10467 25207
" />
<path d="M10664 25741
L10074 25741
" />
<path d="M10664 25994
L10355 25994
L10299 25966
L10271 25910
L10271 25826
L10299 25769
L10327 25741
" />
<path d="M10664 26276
L10271 26276
" />
<path d="M10327 26276
L10299 26304
L10271 26360
L10271 26444
L10299 26501
L10355 26529
L10664 26529
" />
<path d="M10355 26529
L10299 26557
L10271 26613
L10271 26697
L10299 26754
L10355 26782
L10664 26782
" />
<path d="M10636 27288
L10664 27232
L10664 27119
L10636 27063
L10580 27035
L10355 27035
L10299 27063
L10271 27119
L10271 27232
L10299 27288
L10355 27316
L10411 27316
L10467 27035
" />
<path d="M10664 27569
L10271 27569
" />
<path d="M10383 27569
L10327 27597
L10299 27625
L10271 27682
L10271 27738
" />
<path d="M11078 23253
L11500 23253
L11584 23224
L11640 23168
L11668 23084
L11668 23028
" />
<path d="M11275 23787
L11668 23787
" />
<path d="M11275 23534
L11584 23534
L11640 23562
L11668 23618
L11668 23703
L11640 23759
L11612 23787
" />
<path d="M11668 24152
L11640 24096
L11584 24068
L11078 24068
" />
<path d="M11668 25137
L11668 24799
" />
<path d="M11668 24968
L11078 24968
L11162 24912
L11218 24856
L11246 24799
" />
<path d="M11078 25643
L11078 25530
L11106 25474
L11134 25446
L11218 25390
L11331 25362
L11556 25362
L11612 25390
L11640 25418
L11668 25474
L11668 25587
L11640 25643
L11612 25671
L11556 25699
L11415 25699
L11359 25671
L11331 25643
L11303 25587
L11303 25474
L11331 25418
L11359 25390
L11415 25362
" />
</g>
<g style="fill:#000000; fill-opacity:0.0; 
stroke:#000000; stroke-width:59.0551; stroke-opacity:1; 
stroke-linecap:round; stroke-linejoin:round;">
<path d="M9149 3627
L9149 33627
" />
<path d="M47149 33627
L9149 33627
" />
<path d="M47149 3627
L47149 33627
" />
<path d="M9149 3627
L47149 3627
" />
<path d="M28215 29306
L28346 29118
" />
<path d="M28440 29306
L28440 28912
L28290 28912
L28252 28931
L28233 28949
L28215 28987
L28215 29043
L28233 29081
L28252 29099
L28290 29118
L28440 29118
" />
<path d="M27859 28912
L28046 28912
L28065 29099
L28046 29081
L28008 29062
L27915 29062
L27877 29081
L27859 29099
L27840 29137
L27840 29231
L27859 29268
L27877 29287
L27915 29306
L28008 29306
L28046 29287
L28065 29268
" />
<path d="M22500 5374
L22313 5243
" />
<path d="M22500 5149
L22107 5149
L22107 5299
L22125 5337
L22144 5356
L22182 5374
L22238 5374
L22275 5356
L22294 5337
L22313 5299
L22313 5149
" />
<path d="M22500 5749
L22500 5524
" />
<path d="M22500 5637
L22107 5637
L22163 5599
L22200 5562
L22219 5524
" />
<path d="M22107 5993
L22107 6031
L22125 6068
L22144 6087
L22182 6106
L22257 6124
L22350 6124
L22425 6106
L22463 6087
L22482 6068
L22500 6031
L22500 5993
L22482 5956
L22463 5937
L22425 5918
L22350 5899
L22257 5899
L22182 5918
L22144 5937
L22125 5956
L22107 5993
" />
<path d="M25000 5562
L24813 5431
" />
<path d="M25000 5337
L24607 5337
L24607 5487
L24625 5524
L24644 5543
L24682 5562
L24738 5562
L24775 5543
L24794 5524
L24813 5487
L24813 5337
" />
<path d="M25000 5749
L25000 5824
L24982 5862
L24963 5881
L24907 5918
L24832 5937
L24682 5937
L24644 5918
L24625 5899
L24607 5862
L24607 5787
L24625 5749
L24644 5731
L24682 5712
L24775 5712
L24813 5731
L24832 5749
L24850 5787
L24850 5862
L24832 5899
L24813 5918
L24775 5937
" />
<path d="M28215 28306
L28346 28118
" />
<path d="M28440 28306
L28440 27912
L28290 27912
L28252 27931
L28233 27949
L28215 27987
L28215 28043
L28233 28081
L28252 28099
L28290 28118
L28440 28118
" />
<path d="M27990 28081
L28027 28062
L28046 28043
L28065 28006
L28065 27987
L28046 27949
L28027 27931
L27990 27912
L27915 27912
L27877 27931
L27859 27949
L27840 27987
L27840 28006
L27859 28043
L27877 28062
L27915 28081
L27990 28081
L28027 28099
L28046 28118
L28065 28156
L28065 28231
L28046 28268
L28027 28287
L27990 28306
L27915 28306
L27877 28287
L27859 28268
L27840 28231
L27840 28156
L27859 28118
L27877 28099
L27915 28081
" />
<path d="M28215 30306
L28346 30118
" />
<path d="M28440 30306
L28440 29912
L28290 29912
L28252 29931
L28233 29949
L28215 29987
L28215 30043
L28233 30081
L28252 30099
L28290 30118
L28440 30118
" />
<path d="M28083 29912
L27821 29912
L27990 30306
" />
<path d="M20827 16062
L20640 15931
" />
<path d="M20827 15837
L20434 15837
L20434 15987
L20452 16024
L20471 16043
L20508 16062
L20565 16062
L20602 16043
L20621 16024
L20640 15987
L20640 15837
" />
<path d="M20471 16212
L20452 16231
L20434 16268
L20434 16362
L20452 16399
L20471 16418
L20508 16437
L20546 16437
L20602 16418
L20827 16193
L20827 16437
" />
<path d="M28215 27306
L28346 27118
" />
<path d="M28440 27306
L28440 26912
L28290 26912
L28252 26931
L28233 26949
L28215 26987
L28215 27043
L28233 27081
L28252 27099
L28290 27118
L28440 27118
" />
<path d="M27877 26912
L27952 26912
L27990 26931
L28008 26949
L28046 27006
L28065 27081
L28065 27231
L28046 27268
L28027 27287
L27990 27306
L27915 27306
L27877 27287
L27859 27268
L27840 27231
L27840 27137
L27859 27099
L27877 27081
L27915 27062
L27990 27062
L28027 27081
L28046 27099
L28065 27137
" />
<path d="M16715 28768
L16733 28787
L16790 28806
L16827 28806
L16883 28787
L16921 28749
L16940 28712
L16958 28637
L16958 28581
L16940 28506
L16921 28468
L16883 28431
L16827 28412
L16790 28412
L16733 28431
L16715 28449
" />
<path d="M16565 28449
L16546 28431
L16508 28412
L16415 28412
L16377 28431
L16359 28449
L16340 28487
L16340 28524
L16359 28581
L16583 28806
L16340 28806
" />
<path d="M30715 27018
L30733 27037
L30790 27056
L30827 27056
L30883 27037
L30921 26999
L30940 26962
L30958 26887
L30958 26831
L30940 26756
L30921 26718
L30883 26681
L30827 26662
L30790 26662
L30733 26681
L30715 26699
" />
<path d="M30583 26662
L30321 26662
L30490 27056
" />
<path d="M30715 24863
L30733 24881
L30790 24900
L30827 24900
L30883 24881
L30921 24844
L30940 24806
L30958 24731
L30958 24675
L30940 24600
L30921 24563
L30883 24525
L30827 24506
L30790 24506
L30733 24525
L30715 24544
" />
<path d="M30377 24506
L30452 24506
L30490 24525
L30508 24544
L30546 24600
L30565 24675
L30565 24825
L30546 24863
L30527 24881
L30490 24900
L30415 24900
L30377 24881
L30359 24863
L30340 24825
L30340 24731
L30359 24694
L30377 24675
L30415 24656
L30490 24656
L30527 24675
L30546 24694
L30565 24731
" />
<path d="M16715 25018
L16733 25037
L16790 25056
L16827 25056
L16883 25037
L16921 24999
L16940 24962
L16958 24887
L16958 24831
L16940 24756
L16921 24718
L16883 24681
L16827 24662
L16790 24662
L16733 24681
L16715 24699
" />
<path d="M16340 25056
L16565 25056
" />
<path d="M16452 25056
L16452 24662
L16490 24718
L16527 24756
L16565 24774
" />
<path d="M20090 24062
L20108 24043
L20127 23987
L20127 23949
L20108 23893
L20071 23856
L20033 23837
L19958 23818
L19902 23818
L19827 23837
L19790 23856
L19752 23893
L19734 23949
L19734 23987
L19752 24043
L19771 24062
" />
<path d="M19734 24418
L19734 24231
L19921 24212
L19902 24231
L19883 24268
L19883 24362
L19902 24399
L19921 24418
L19958 24437
L20052 24437
L20090 24418
L20108 24399
L20127 24362
L20127 24268
L20108 24231
L20090 24212
" />
<path d="M34463 19062
L34482 19043
L34500 18987
L34500 18949
L34482 18893
L34444 18856
L34407 18837
L34332 18818
L34275 18818
L34200 18837
L34163 18856
L34125 18893
L34107 18949
L34107 18987
L34125 19043
L34144 19062
" />
<path d="M34238 19399
L34500 19399
" />
<path d="M34088 19306
L34369 19212
L34369 19456
" />
<path d="M26885 28783
L26413 28783
" />
<path d="M26413 29472
L26885 29472
" />
<path d="M23494 5864
L23494 5391
" />
<path d="M22805 5391
L22805 5864
" />
<path d="M25994 5864
L25994 5391
" />
<path d="M25305 5391
L25305 5864
" />
<path d="M26885 27783
L26413 27783
" />
<path d="M26413 28472
L26885 28472
" />
<path d="M26885 29783
L26413 29783
" />
<path d="M26413 30472
L26885 30472
" />
<path d="M21994 16364
L21994 15891
" />
<path d="M21305 15891
L21305 16364
" />
<path d="M26885 26783
L26413 26783
" />
<path d="M26413 27472
L26885 27472
" />
<path d="M17043 28031
L16255 28031
" />
<path d="M16255 27224
L17043 27224
" />
<path d="M30255 27224
L31043 27224
" />
<path d="M31043 28031
L30255 28031
" />
<path d="M30255 25224
L31043 25224
" />
<path d="M31043 26031
L30255 26031
" />
<path d="M16255 25224
L17043 25224
" />
<path d="M17043 26031
L16255 26031
" />
<path d="M20314 24824
L20314 24431
" />
<path d="M20984 24431
L20984 24824
" />
<path d="M34814 19324
L34814 18931
" />
<path d="M35484 18931
L35484 19324
" />
</g>
<g style="fill:#000000; fill-opacity:1.0; 
stroke:#000000; stroke-width:0; stroke-opacity:1; 
stroke-linecap:round; stroke-linejoin:round;">
<circle cx="14649.6" cy="18628" r="393.5" /> 
</g>
<g style="fill:#000000; fill-opacity:1.0; 
stroke:#000000; stroke-width:39.3701; stroke-opacity:1; 
stroke-linecap:round; stroke-linejoin:round;">
</g>
<g style="fill:#000000; fill-opacity:1.0; 
stroke:#000000; stroke-width:0; stroke-opacity:1; 
stroke-linecap:round; stroke-linejoin:round;">
<circle cx="14649.6" cy="15628" r="393.5" /> 
</g>
<g style="fill:#000000; fill-opacity:1.0; 
stroke:#000000; stroke-width:39.3701; stroke-opacity:1; 
stroke-linecap:round; stroke-linejoin:round;">
</g>
<g style="fill:#000000; fill-opacity:1.0; 
stroke:#000000; stroke-width:0; stroke-opacity:1; 
stroke-linecap:round; stroke-linejoin:round;">
<circle cx="13149.6" cy="18628" r="393.5" /> 
</g>
<g style="fill:#000000; fill-opacity:1.0; 
stroke:#000000; stroke-width:39.3701; stroke-opacity:1; 
stroke-linecap:round; stroke-linejoin:round;">
</g>
<g style="fill:#000000; fill-opacity:1.0; 
stroke:#000000; stroke-width:0; stroke-opacity:1; 
stroke-linecap:round; stroke-linejoin:round;">
<circle cx="13149.6" cy="15628" r="393.5" /> 
</g>
<g style="fill:#000000; fill-opacity:1.0; 
stroke:#000000; stroke-width:39.3701; stroke-opacity:1; 
stroke-linecap:round; stroke-linejoin:round;">
</g>
<g style="fill:#000000; fill-opacity:1.0; 
stroke:#000000; stroke-width:0; stroke-opacity:1; 
stroke-linecap:round; stroke-linejoin:round;">
<circle cx="20649.6" cy="13628" r="393.5" /> 
</g>
<g style="fill:#000000; fill-opacity:1.0; 
stroke:#000000; stroke-width:39.3701; stroke-opacity:1; 
stroke-linecap:round; stroke-linejoin:round;">
</g>
<g style="fill:#000000; fill-opacity:1.0; 
stroke:#000000; stroke-width:0; stroke-opacity:1; 
stroke-linecap:round; stroke-linejoin:round;">
<circle cx="17649.6" cy="13628" r="393.5" /> 
</g>
<g style="fill:#000000; fill-opacity:1.0; 
stroke:#000000; stroke-width:39.3701; stroke-opacity:1; 
stroke-linecap:round; stroke-linejoin:round;">
</g> 
</svg>
