<?xml version="1.0" standalone="no"?>
 <!DOCTYPE svg PUBLIC "-//W3C//DTD SVG 1.1//EN" 
 "http://www.w3.org/Graphics/SVG/1.1/DTD/svg11.dtd"> 
<svg xmlns="http://www.w3.org/2000/svg" version="1.1" 
    width="11.9812cm" height="8.55218cm" viewBox="0 0 47170 33670 ">
<title>SVG Picture created as AVR-ZIF-Prog-F.Cu.svg date 2016/08/05 14:10:12 </title>
  <desc>Picture generated by PCBNEW </desc>
<g style="fill:#000000; fill-opacity:1;stroke:#000000; stroke-opacity:1;
stroke-linecap:round; stroke-linejoin:round; "
 transform="translate(0 0) scale(1 1)">
</g>
<g style="fill:#000000; fill-opacity:0.0; 
stroke:#000000; stroke-width:-0.000393701; stroke-opacity:1; 
stroke-linecap:round; stroke-linejoin:round;">
</g>
<g style="fill:#000000; fill-opacity:0.0; 
stroke:#000000; stroke-width:118.11; stroke-opacity:1; 
stroke-linecap:round; stroke-linejoin:round;">
<path d="M32793 31804
L32456 31804
" />
<path d="M32625 32395
L32625 31804
" />
<path d="M32146 31804
L32034 31804
L31978 31832
L31921 31888
L31893 32001
L31893 32198
L31921 32310
L31978 32366
L32034 32395
L32146 32395
L32203 32366
L32259 32310
L32287 32198
L32287 32001
L32259 31888
L32203 31832
L32146 31804
" />
<path d="M31640 32395
L31640 31804
L31415 31804
L31359 31832
L31331 31860
L31303 31917
L31303 32001
L31331 32057
L31359 32085
L31415 32113
L31640 32113
" />
</g>
<g style="fill:#000000; fill-opacity:0.0; 
stroke:#000000; stroke-width:59.0551; stroke-opacity:1; 
stroke-linecap:round; stroke-linejoin:round;">
<path d="M38020 3627
L38020 33627
" />
<path d="M20 33627
L38020 33627
" />
<path d="M20 3627
L20 33627
" />
<path d="M38020 3627
L20 3627
" />
</g>
<g style="fill:#000000; fill-opacity:0.0; 
stroke:#000000; stroke-width:0; stroke-opacity:1; 
stroke-linecap:round; stroke-linejoin:round;">
</g>
<g style="fill:#000000; fill-opacity:1.0; 
stroke:#000000; stroke-width:0; stroke-opacity:1; 
stroke-linecap:round; stroke-linejoin:round;">
<polyline style="fill-rule:evenodd;"
points="14420,25287
13620,25287
13620,25967
14420,25967
14420,25287
" /> 
</g>
<g style="fill:#000000; fill-opacity:1.0; 
stroke:#000000; stroke-width:680; stroke-opacity:1; 
stroke-linecap:round; stroke-linejoin:round;">
</g>
<g style="fill:#000000; fill-opacity:0.0; 
stroke:#000000; stroke-width:680; stroke-opacity:1; 
stroke-linecap:round; stroke-linejoin:round;">
<path d="M13960 26627
L14080 26627
" />
<path d="M13960 27627
L14080 27627
" />
</g>
<g style="fill:#000000; fill-opacity:0.0; 
stroke:#000000; stroke-width:0; stroke-opacity:1; 
stroke-linecap:round; stroke-linejoin:round;">
</g>
<g style="fill:#000000; fill-opacity:1.0; 
stroke:#000000; stroke-width:0; stroke-opacity:1; 
stroke-linecap:round; stroke-linejoin:round;">
<polyline style="fill-rule:evenodd;"
points="33209,4598
31831,4598
31831,5976
33209,5976
33209,4598
" /> 
<polyline style="fill-rule:evenodd;"
points="33209,7278
31831,7278
31831,8656
33209,8656
33209,7278
" /> 
<polyline style="fill-rule:evenodd;"
points="18360,5967
18360,5287
17680,5287
17680,5967
18360,5967
" /> 
</g>
<g style="fill:#000000; fill-opacity:1.0; 
stroke:#000000; stroke-width:680; stroke-opacity:1; 
stroke-linecap:round; stroke-linejoin:round;">
</g>
<g style="fill:#000000; fill-opacity:0.0; 
stroke:#000000; stroke-width:680; stroke-opacity:1; 
stroke-linecap:round; stroke-linejoin:round;">
<path d="M17020 5627
L17020 5627
" />
<path d="M18020 6627
L18020 6627
" />
<path d="M17020 6627
L17020 6627
" />
<path d="M18020 7627
L18020 7627
" />
<path d="M17020 7627
L17020 7627
" />
</g>
<g style="fill:#000000; fill-opacity:0.0; 
stroke:#000000; stroke-width:0; stroke-opacity:1; 
stroke-linecap:round; stroke-linejoin:round;">
</g>
<g style="fill:#000000; fill-opacity:1.0; 
stroke:#000000; stroke-width:0; stroke-opacity:1; 
stroke-linecap:round; stroke-linejoin:round;">
<polyline style="fill-rule:evenodd;"
points="14420,17467
14420,16787
13620,16787
13620,17467
14420,17467
" /> 
</g>
<g style="fill:#000000; fill-opacity:1.0; 
stroke:#000000; stroke-width:680; stroke-opacity:1; 
stroke-linecap:round; stroke-linejoin:round;">
</g>
<g style="fill:#000000; fill-opacity:0.0; 
stroke:#000000; stroke-width:680; stroke-opacity:1; 
stroke-linecap:round; stroke-linejoin:round;">
<path d="M14080 18127
L13960 18127
" />
<path d="M14080 19127
L13960 19127
" />
</g>
<g style="fill:#000000; fill-opacity:0.0; 
stroke:#000000; stroke-width:0; stroke-opacity:1; 
stroke-linecap:round; stroke-linejoin:round;">
</g>
<g style="fill:#000000; fill-opacity:1.0; 
stroke:#000000; stroke-width:0; stroke-opacity:1; 
stroke-linecap:round; stroke-linejoin:round;">
<polyline style="fill-rule:evenodd;"
points="26620,7727
26620,8527
27420,8527
27420,7727
26620,7727
" /> 
</g>
<g style="fill:#000000; fill-opacity:1.0; 
stroke:#000000; stroke-width:800; stroke-opacity:1; 
stroke-linecap:round; stroke-linejoin:round;">
</g>
<g style="fill:#000000; fill-opacity:0.0; 
stroke:#000000; stroke-width:800; stroke-opacity:1; 
stroke-linecap:round; stroke-linejoin:round;">
<path d="M27020 7127
L27020 7127
" />
</g>
<g style="fill:#000000; fill-opacity:0.0; 
stroke:#000000; stroke-width:0; stroke-opacity:1; 
stroke-linecap:round; stroke-linejoin:round;">
</g>
<g style="fill:#000000; fill-opacity:1.0; 
stroke:#000000; stroke-width:0; stroke-opacity:1; 
stroke-linecap:round; stroke-linejoin:round;">
<polyline style="fill-rule:evenodd;"
points="23626,7734
23626,8521
24414,8521
24414,7734
23626,7734
" /> 
<circle cx="24020.4" cy="7127.95" r="393.701" /> 
</g>
<g style="fill:#000000; fill-opacity:1.0; 
stroke:#000000; stroke-width:39.3701; stroke-opacity:1; 
stroke-linecap:round; stroke-linejoin:round;">
</g>
<g style="fill:#000000; fill-opacity:1.0; 
stroke:#000000; stroke-width:0; stroke-opacity:1; 
stroke-linecap:round; stroke-linejoin:round;">
<polyline style="fill-rule:evenodd;"
points="21126,7734
21126,8521
21914,8521
21914,7734
21126,7734
" /> 
<circle cx="21520.4" cy="7127.95" r="393.701" /> 
</g>
<g style="fill:#000000; fill-opacity:1.0; 
stroke:#000000; stroke-width:39.3701; stroke-opacity:1; 
stroke-linecap:round; stroke-linejoin:round;">
</g>
<g style="fill:#000000; fill-opacity:1.0; 
stroke:#000000; stroke-width:629.921; stroke-opacity:1; 
stroke-linecap:round; stroke-linejoin:round;">
</g>
<g style="fill:#000000; fill-opacity:0.0; 
stroke:#000000; stroke-width:629.921; stroke-opacity:1; 
stroke-linecap:round; stroke-linejoin:round;">
<path d="M25658 18127
L25382 18127
" />
<path d="M25658 19127
L25382 19127
" />
<path d="M25658 20127
L25382 20127
" />
<path d="M25658 21127
L25382 21127
" />
<path d="M25658 22127
L25382 22127
" />
<path d="M25658 23127
L25382 23127
" />
<path d="M25658 24127
L25382 24127
" />
<path d="M25658 25127
L25382 25127
" />
<path d="M25658 26127
L25382 26127
" />
<path d="M25658 27127
L25382 27127
" />
<path d="M25658 28127
L25382 28127
" />
<path d="M25658 29127
L25382 29127
" />
<path d="M25658 30127
L25382 30127
" />
<path d="M25658 31127
L25382 31127
" />
<path d="M22658 31127
L22382 31127
" />
<path d="M22658 30127
L22382 30127
" />
<path d="M22658 29127
L22382 29127
" />
<path d="M22658 28127
L22382 28127
" />
<path d="M22658 27127
L22382 27127
" />
<path d="M22658 26127
L22382 26127
" />
<path d="M22658 25127
L22382 25127
" />
<path d="M22658 24127
L22382 24127
" />
<path d="M22658 23127
L22382 23127
" />
<path d="M22658 22127
L22382 22127
" />
<path d="M22658 21127
L22382 21127
" />
<path d="M22658 20127
L22382 20127
" />
<path d="M22658 19127
L22382 19127
" />
<path d="M22658 18127
L22382 18127
" />
</g>
<g style="fill:#000000; fill-opacity:1.0; 
stroke:#000000; stroke-width:0; stroke-opacity:1; 
stroke-linecap:round; stroke-linejoin:round;">
<circle cx="28020.4" cy="27589" r="295.5" /> 
</g>
<g style="fill:#000000; fill-opacity:1.0; 
stroke:#000000; stroke-width:39.3701; stroke-opacity:1; 
stroke-linecap:round; stroke-linejoin:round;">
</g>
<g style="fill:#000000; fill-opacity:1.0; 
stroke:#000000; stroke-width:0; stroke-opacity:1; 
stroke-linecap:round; stroke-linejoin:round;">
<circle cx="28020.4" cy="25667" r="295.5" /> 
</g>
<g style="fill:#000000; fill-opacity:1.0; 
stroke:#000000; stroke-width:39.3701; stroke-opacity:1; 
stroke-linecap:round; stroke-linejoin:round;">
</g>
<g style="fill:#000000; fill-opacity:1.0; 
stroke:#000000; stroke-width:0; stroke-opacity:1; 
stroke-linecap:round; stroke-linejoin:round;">
<polyline style="fill-rule:evenodd;"
points="35115,11096
35115,10899
34209,10899
34209,11096
35115,11096
" /> 
<polyline style="fill-rule:evenodd;"
points="35115,11411
35115,11214
34209,11214
34209,11411
35115,11411
" /> 
<polyline style="fill-rule:evenodd;"
points="35115,11726
35115,11529
34209,11529
34209,11726
35115,11726
" /> 
<polyline style="fill-rule:evenodd;"
points="35115,12041
35115,11844
34209,11844
34209,12041
35115,12041
" /> 
<polyline style="fill-rule:evenodd;"
points="35115,12356
35115,12159
34209,12159
34209,12356
35115,12356
" /> 
<polyline style="fill-rule:evenodd;"
points="35193,10269
35193,9482
34209,9482
34209,10269
35193,10269
" /> 
<polyline style="fill-rule:evenodd;"
points="37358,10269
37358,9482
36374,9482
36374,10269
37358,10269
" /> 
<polyline style="fill-rule:evenodd;"
points="35193,13773
35193,12986
34209,12986
34209,13773
35193,13773
" /> 
<polyline style="fill-rule:evenodd;"
points="37358,13773
37358,12986
36374,12986
36374,13773
37358,13773
" /> 
<circle cx="35685.4" cy="10762" r="177" /> 
</g>
<g style="fill:#000000; fill-opacity:1.0; 
stroke:#000000; stroke-width:39.3701; stroke-opacity:1; 
stroke-linecap:round; stroke-linejoin:round;">
</g>
<g style="fill:#000000; fill-opacity:1.0; 
stroke:#000000; stroke-width:0; stroke-opacity:1; 
stroke-linecap:round; stroke-linejoin:round;">
<circle cx="35685.4" cy="12494" r="177" /> 
</g>
<g style="fill:#000000; fill-opacity:1.0; 
stroke:#000000; stroke-width:39.3701; stroke-opacity:1; 
stroke-linecap:round; stroke-linejoin:round;">
</g>
<g style="fill:#000000; fill-opacity:1.0; 
stroke:#000000; stroke-width:0; stroke-opacity:1; 
stroke-linecap:round; stroke-linejoin:round;">
<polyline style="fill-rule:evenodd;"
points="30276,4872
29764,4872
29764,5383
30276,5383
30276,4872
" /> 
<circle cx="30020.4" cy="6112.21" r="255.906" /> 
</g>
<g style="fill:#000000; fill-opacity:1.0; 
stroke:#000000; stroke-width:39.3701; stroke-opacity:1; 
stroke-linecap:round; stroke-linejoin:round;">
</g>
<g style="fill:#000000; fill-opacity:1.0; 
stroke:#000000; stroke-width:629.921; stroke-opacity:1; 
stroke-linecap:round; stroke-linejoin:round;">
</g>
<g style="fill:#000000; fill-opacity:0.0; 
stroke:#000000; stroke-width:629.921; stroke-opacity:1; 
stroke-linecap:round; stroke-linejoin:round;">
<path d="M11158 9627
L10882 9627
" />
<path d="M11158 10627
L10882 10627
" />
<path d="M11158 11627
L10882 11627
" />
<path d="M11158 12627
L10882 12627
" />
<path d="M11158 13627
L10882 13627
" />
<path d="M11158 14627
L10882 14627
" />
<path d="M11158 15627
L10882 15627
" />
<path d="M11158 16627
L10882 16627
" />
<path d="M11158 17627
L10882 17627
" />
<path d="M11158 18627
L10882 18627
" />
<path d="M11158 19627
L10882 19627
" />
<path d="M11158 20627
L10882 20627
" />
<path d="M11158 21627
L10882 21627
" />
<path d="M11158 22627
L10882 22627
" />
<path d="M11158 23627
L10882 23627
" />
<path d="M11158 24627
L10882 24627
" />
<path d="M11158 25627
L10882 25627
" />
<path d="M11158 26627
L10882 26627
" />
<path d="M11158 27627
L10882 27627
" />
<path d="M11158 28627
L10882 28627
" />
<path d="M5158 28627
L4882 28627
" />
<path d="M5158 27627
L4882 27627
" />
<path d="M5158 26627
L4882 26627
" />
<path d="M5158 25627
L4882 25627
" />
<path d="M5158 24627
L4882 24627
" />
<path d="M5158 23627
L4882 23627
" />
<path d="M5158 22627
L4882 22627
" />
<path d="M5158 21627
L4882 21627
" />
<path d="M5158 20627
L4882 20627
" />
<path d="M5158 19627
L4882 19627
" />
<path d="M5158 18627
L4882 18627
" />
<path d="M5158 17627
L4882 17627
" />
<path d="M5158 16627
L4882 16627
" />
<path d="M5158 15627
L4882 15627
" />
<path d="M5158 14627
L4882 14627
" />
<path d="M5158 13627
L4882 13627
" />
<path d="M5158 12627
L4882 12627
" />
<path d="M5158 11627
L4882 11627
" />
<path d="M5158 10627
L4882 10627
" />
<path d="M5158 9627
L4882 9627
" />
</g>
<g style="fill:#000000; fill-opacity:1.0; 
stroke:#000000; stroke-width:0; stroke-opacity:1; 
stroke-linecap:round; stroke-linejoin:round;">
<circle cx="32520.4" cy="18628" r="393.5" /> 
</g>
<g style="fill:#000000; fill-opacity:1.0; 
stroke:#000000; stroke-width:39.3701; stroke-opacity:1; 
stroke-linecap:round; stroke-linejoin:round;">
</g>
<g style="fill:#000000; fill-opacity:1.0; 
stroke:#000000; stroke-width:0; stroke-opacity:1; 
stroke-linecap:round; stroke-linejoin:round;">
<circle cx="32520.4" cy="15628" r="393.5" /> 
</g>
<g style="fill:#000000; fill-opacity:1.0; 
stroke:#000000; stroke-width:39.3701; stroke-opacity:1; 
stroke-linecap:round; stroke-linejoin:round;">
</g>
<g style="fill:#000000; fill-opacity:1.0; 
stroke:#000000; stroke-width:0; stroke-opacity:1; 
stroke-linecap:round; stroke-linejoin:round;">
<circle cx="34020.4" cy="18628" r="393.5" /> 
</g>
<g style="fill:#000000; fill-opacity:1.0; 
stroke:#000000; stroke-width:39.3701; stroke-opacity:1; 
stroke-linecap:round; stroke-linejoin:round;">
</g>
<g style="fill:#000000; fill-opacity:1.0; 
stroke:#000000; stroke-width:0; stroke-opacity:1; 
stroke-linecap:round; stroke-linejoin:round;">
<circle cx="34020.4" cy="15628" r="393.5" /> 
</g>
<g style="fill:#000000; fill-opacity:1.0; 
stroke:#000000; stroke-width:39.3701; stroke-opacity:1; 
stroke-linecap:round; stroke-linejoin:round;">
</g>
<g style="fill:#000000; fill-opacity:1.0; 
stroke:#000000; stroke-width:0; stroke-opacity:1; 
stroke-linecap:round; stroke-linejoin:round;">
<circle cx="26520.4" cy="13628" r="393.5" /> 
</g>
<g style="fill:#000000; fill-opacity:1.0; 
stroke:#000000; stroke-width:39.3701; stroke-opacity:1; 
stroke-linecap:round; stroke-linejoin:round;">
</g>
<g style="fill:#000000; fill-opacity:1.0; 
stroke:#000000; stroke-width:0; stroke-opacity:1; 
stroke-linecap:round; stroke-linejoin:round;">
<circle cx="29520.4" cy="13628" r="393.5" /> 
</g>
<g style="fill:#000000; fill-opacity:1.0; 
stroke:#000000; stroke-width:39.3701; stroke-opacity:1; 
stroke-linecap:round; stroke-linejoin:round;">
</g>
<g style="fill:#000000; fill-opacity:1.0; 
stroke:#000000; stroke-width:0; stroke-opacity:1; 
stroke-linecap:round; stroke-linejoin:round;">
<circle cx="35520.4" cy="17128" r="393.5" /> 
</g>
<g style="fill:#000000; fill-opacity:1.0; 
stroke:#000000; stroke-width:39.3701; stroke-opacity:1; 
stroke-linecap:round; stroke-linejoin:round;">
</g>
<g style="fill:#000000; fill-opacity:1.0; 
stroke:#000000; stroke-width:0; stroke-opacity:1; 
stroke-linecap:round; stroke-linejoin:round;">
<polyline style="fill-rule:evenodd;"
points="35913,15234
35126,15234
35126,16021
35913,16021
35913,15234
" /> 
<circle cx="31020.4" cy="17128" r="393.5" /> 
</g>
<g style="fill:#000000; fill-opacity:1.0; 
stroke:#000000; stroke-width:39.3701; stroke-opacity:1; 
stroke-linecap:round; stroke-linejoin:round;">
</g>
<g style="fill:#000000; fill-opacity:1.0; 
stroke:#000000; stroke-width:0; stroke-opacity:1; 
stroke-linecap:round; stroke-linejoin:round;">
<polyline style="fill-rule:evenodd;"
points="31413,15234
30626,15234
30626,16021
31413,16021
31413,15234
" /> 
<circle cx="1520.39" cy="32128" r="800" /> 
</g>
<g style="fill:#000000; fill-opacity:1.0; 
stroke:#000000; stroke-width:39.3701; stroke-opacity:1; 
stroke-linecap:round; stroke-linejoin:round;">
</g>
<g style="fill:#000000; fill-opacity:1.0; 
stroke:#000000; stroke-width:0; stroke-opacity:1; 
stroke-linecap:round; stroke-linejoin:round;">
<circle cx="36520.4" cy="32128" r="800" /> 
</g>
<g style="fill:#000000; fill-opacity:1.0; 
stroke:#000000; stroke-width:39.3701; stroke-opacity:1; 
stroke-linecap:round; stroke-linejoin:round;">
</g>
<g style="fill:#000000; fill-opacity:1.0; 
stroke:#000000; stroke-width:0; stroke-opacity:1; 
stroke-linecap:round; stroke-linejoin:round;">
<circle cx="36520.4" cy="5127.95" r="800" /> 
</g>
<g style="fill:#000000; fill-opacity:1.0; 
stroke:#000000; stroke-width:39.3701; stroke-opacity:1; 
stroke-linecap:round; stroke-linejoin:round;">
</g>
<g style="fill:#000000; fill-opacity:1.0; 
stroke:#000000; stroke-width:0; stroke-opacity:1; 
stroke-linecap:round; stroke-linejoin:round;">
<circle cx="1520.39" cy="5127.95" r="800" /> 
</g>
<g style="fill:#000000; fill-opacity:1.0; 
stroke:#000000; stroke-width:39.3701; stroke-opacity:1; 
stroke-linecap:round; stroke-linejoin:round;">
</g>
<g style="fill:#000000; fill-opacity:1.0; 
stroke:#000000; stroke-width:118.11; stroke-opacity:1; 
stroke-linecap:round; stroke-linejoin:round;">
</g>
<g style="fill:#000000; fill-opacity:0.0; 
stroke:#000000; stroke-width:118.11; stroke-opacity:1; 
stroke-linecap:round; stroke-linejoin:round;">
<path d="M14020 23808
L12270 22058
" />
<path d="M11020 20627
L11158 20627
" />
<path d="M11158 20627
L12270 21740
" />
<path d="M12270 21740
L12270 22058
" />
<path d="M11020 26627
L14020 26627
" />
<path d="M14020 25627
L14020 23808
" />
<path d="M11020 27627
L14020 27627
" />
<path d="M28020 31127
L32520 26627
" />
<path d="M32520 26627
L32520 23947
" />
<path d="M25520 31127
L28020 31127
" />
<path d="M32520 18627
L32520 23947
" />
<path d="M31020 15627
L32520 15627
" />
<path d="M34662 11312
L34051 11312
" />
<path d="M32520 12844
L34051 11312
" />
<path d="M32520 15627
L32520 12844
" />
<path d="M25520 21127
L26520 21127
" />
<path d="M26520 21127
L28020 19627
" />
<path d="M33455 18063
L34020 18627
" />
<path d="M28020 19627
L28020 18627
" />
<path d="M28020 18627
L28585 18063
" />
<path d="M28585 18063
L33455 18063
" />
<path d="M36020 11627
L36020 14616
" />
<path d="M35520 15116
L35520 15627
" />
<path d="M36020 14616
L35520 15116
" />
<path d="M34662 11627
L36020 11627
" />
<path d="M34662 11627
L35272 11627
" />
<path d="M35520 15627
L35354 15627
" />
<path d="M35354 15627
L34020 15627
" />
<path d="M25520 24127
L24949 24127
" />
<path d="M24949 24127
L24476 24600
" />
<path d="M24476 24600
L24047 24600
" />
<path d="M22520 26127
L22658 26127
" />
<path d="M22658 26127
L22658 25990
" />
<path d="M22658 25990
L24047 24600
" />
<path d="M31513 5127
L31673 5287
" />
<path d="M30020 5127
L31513 5127
" />
<path d="M32520 5287
L31673 5287
" />
<path d="M32520 9466
L32520 7967
" />
<path d="M34051 10997
L32520 9466
" />
<path d="M34662 10997
L34051 10997
" />
<path d="M4270 23807
L4270 28015
" />
<path d="M4270 28015
L4882 28627
" />
<path d="M4882 28627
L5020 28627
" />
<path d="M5020 23627
L4449 23627
" />
<path d="M4449 23627
L4270 23807
" />
<path d="M5020 13627
L5591 13627
" />
<path d="M5591 13627
L6063 14100
" />
<path d="M6063 14100
L7270 14100
" />
<path d="M7270 14100
L7797 14627
" />
<path d="M7797 14627
L11020 14627
" />
<path d="M11020 14454
L16020 9454
" />
<path d="M16520 6627
L16020 7127
" />
<path d="M16020 7127
L16020 9454
" />
<path d="M17020 6627
L16520 6627
" />
<path d="M11020 14627
L11020 14454
" />
<path d="M5020 12627
L4405 13242
" />
<path d="M4405 13242
L4405 14826
" />
<path d="M4405 14826
L4734 15155
" />
<path d="M4734 15155
L7270 15155
" />
<path d="M7270 15155
L7742 15627
" />
<path d="M7742 15627
L11020 15627
" />
<path d="M18020 12630
L18020 7627
" />
<path d="M14020 16630
L18020 12630
" />
<path d="M14020 17127
L14020 16630
" />
<path d="M6020 22057
L6020 25765
" />
<path d="M6020 25765
L5158 26627
" />
<path d="M5158 26627
L5020 26627
" />
<path d="M5020 21627
L5591 21627
" />
<path d="M5591 21627
L6020 22057
" />
<path d="M4270 21448
L4270 17267
" />
<path d="M4270 17267
L4409 17127
" />
<path d="M5020 21627
L4449 21627
" />
<path d="M4449 21627
L4270 21448
" />
<path d="M4520 11877
L4161 12236
" />
<path d="M4161 12236
L4161 12664
" />
<path d="M4632 11877
L4520 11877
" />
<path d="M5020 11627
L4882 11627
" />
<path d="M4882 11627
L4632 11877
" />
<path d="M11020 16627
L11020 17100
" />
<path d="M4161 16879
L4409 17127
" />
<path d="M4161 12664
L4161 16879
" />
<path d="M10992 17127
L11020 17100
" />
<path d="M4409 17127
L10992 17127
" />
<path d="M25520 25127
L26091 25127
" />
<path d="M26091 25127
L26520 24698
" />
<path d="M26520 24698
L26520 23877
" />
<path d="M26242 23655
L24520 23655
" />
<path d="M26520 23877
L26270 23627
" />
<path d="M26270 23627
L26242 23655
" />
<path d="M24520 23655
L24047 24127
" />
<path d="M24047 24127
L22520 24127
" />
<path d="M17020 7627
L17520 7127
" />
<path d="M17520 7127
L19180 7127
" />
<path d="M19180 7127
L19740 6567
" />
<path d="M19740 6567
L25902 6567
" />
<path d="M25902 6567
L26462 7127
" />
<path d="M26462 7127
L27020 7127
" />
<path d="M14020 19127
L14020 19625
" />
<path d="M18349 23954
L14020 19625
" />
<path d="M22520 23954
L18349 23954
" />
<path d="M22520 24127
L22520 23954
" />
<path d="M34051 12257
L34051 11942
" />
<path d="M34662 11942
L34051 11942
" />
<path d="M34662 12257
L34051 12257
" />
<path d="M33465 12844
L34051 12257
" />
<path d="M33465 17127
L33465 12844
" />
<path d="M31020 17127
L33465 17127
" />
<path d="M33465 17127
L35520 17127
" />
<path d="M28593 6112
L27577 7127
" />
<path d="M30020 6112
L28593 6112
" />
<path d="M27020 7127
L27577 7127
" />
<path d="M11020 19627
L11020 19454
" />
<path d="M14020 19127
L13462 19127
" />
<path d="M11020 19444
L11020 19454
" />
<path d="M10204 18627
L11020 19444
" />
<path d="M5020 18627
L10204 18627
" />
<path d="M13146 19444
L13462 19127
" />
<path d="M11020 19444
L13146 19444
" />
<path d="M4547 29100
L1520 32127
" />
<path d="M11020 29100
L4547 29100
" />
<path d="M11020 28627
L11020 29100
" />
<path d="M22520 22127
L23520 22127
" />
<path d="M23520 22127
L24020 21627
" />
<path d="M24020 21627
L24020 20450
" />
<path d="M24020 20450
L24020 8127
" />
<path d="M25520 26127
L27559 26127
" />
<path d="M27559 26127
L28020 25666
" />
<path d="M28020 25666
L28008 25655
" />
<path d="M25520 27127
L27559 27127
" />
<path d="M27559 27127
L28020 27588
" />
<path d="M28008 27600
L28020 27588
" />
<path d="M25520 27127
L25658 27127
" />
</g>
<g style="fill:#000000; fill-opacity:1.0; 
stroke:#000000; stroke-width:78.7402; stroke-opacity:1; 
stroke-linecap:round; stroke-linejoin:round;">
<polyline style="fill-rule:evenodd;"
points="207,33440
37833,33440
37833,32876
37183,32876
37093,33019
36708,33170
36295,33163
35947,33019
35857,32876
2183,32876
2093,33019
1708,33170
1295,33163
947,33019
857,32876
1520,32213
2183,32876
35857,32876
36520,32213
37183,32876
37833,32876
37833,31939
37563,31939
37555,32353
37411,32700
37268,32790
36606,32127
36434,32127
35771,32790
35628,32700
35477,32315
35484,31902
35628,31555
35691,31515
33066,31515
33066,32834
30974,32834
30974,31939
2563,31939
2555,32353
2411,32700
2268,32790
1606,32127
1434,32127
771,32790
628,32700
477,32315
484,31902
628,31555
771,31465
1434,32127
1606,32127
2268,31465
2411,31555
2563,31939
30974,31939
30974,31515
33066,31515
35691,31515
35771,31465
36434,32127
36606,32127
37268,31465
37411,31555
37563,31939
37833,31939
37833,31379
37183,31379
36520,32042
35857,31379
35947,31236
36332,31085
36745,31092
37093,31236
37183,31379
37833,31379
37833,18737
34571,18737
34487,18939
34332,19094
34130,19178
33911,19179
33708,19095
33553,18940
33469,18738
33469,18518
33509,18422
33365,18279
32951,18279
32987,18315
33071,18517
33071,18737
32987,18939
32832,19094
32736,19134
32736,26627
32720,26710
32673,26781
28173,31281
28103,31328
28020,31344
26082,31344
26004,31462
25850,31564
25670,31600
25370,31600
25189,31564
25036,31462
24934,31308
24898,31127
23142,31127
23106,31308
23004,31462
22850,31564
22670,31600
22370,31600
22189,31564
22036,31462
21981,31379
2183,31379
1520,32042
857,31379
947,31236
1332,31085
1745,31092
2093,31236
2183,31379
21981,31379
21934,31308
21898,31127
21934,30947
22036,30793
22189,30691
22370,30655
22670,30655
22850,30691
23004,30793
23106,30947
23142,31127
24898,31127
24934,30947
25036,30793
25189,30691
25370,30655
25670,30655
25850,30691
26004,30793
26082,30911
27930,30911
28714,30127
26142,30127
26106,30308
26004,30462
25850,30564
25670,30600
25370,30600
25189,30564
25036,30462
24934,30308
24898,30127
23142,30127
23106,30308
23004,30462
22850,30564
22670,30600
22370,30600
22189,30564
22036,30462
21934,30308
21898,30127
21934,29947
22036,29793
22189,29691
22370,29655
22670,29655
22850,29691
23004,29793
23106,29947
23142,30127
24898,30127
24934,29947
25036,29793
25189,29691
25370,29655
25670,29655
25850,29691
26004,29793
26106,29947
26142,30127
28714,30127
29714,29127
26142,29127
26106,29308
26004,29462
25850,29564
25670,29600
25370,29600
25189,29564
25036,29462
24934,29308
24898,29127
23142,29127
23106,29308
23004,29462
22850,29564
22670,29600
22370,29600
22189,29564
22036,29462
21934,29308
21898,29127
21934,28947
22036,28793
22066,28774
11692,28774
11593,28977
11426,29116
11218,29182
11081,29182
11081,28688
10959,28688
10959,29182
10821,29182
10614,29116
10447,28977
10347,28774
10391,28688
10959,28688
11081,28688
11648,28688
11692,28774
22066,28774
22189,28691
22370,28655
22670,28655
22850,28691
23004,28793
23106,28947
23142,29127
24898,29127
24934,28947
25036,28793
25189,28691
25370,28655
25670,28655
25850,28691
26004,28793
26106,28947
26142,29127
29714,29127
30714,28127
26142,28127
26106,28308
26004,28462
25850,28564
25670,28600
25370,28600
25189,28564
25036,28462
24934,28308
24898,28127
23142,28127
23106,28308
23004,28462
22850,28564
22670,28600
22370,28600
22189,28564
22036,28462
21934,28308
21898,28127
21934,27947
22036,27793
22189,27691
22370,27655
22670,27655
22850,27691
23004,27793
23106,27947
23142,28127
24898,28127
24934,27947
25036,27793
25189,27691
25370,27655
25670,27655
25850,27691
26004,27793
26106,27947
26142,28127
30714,28127
31163,27678
28473,27678
28404,27845
28277,27972
28110,28041
27930,28042
27764,27973
27636,27845
27567,27679
27567,27627
14588,27627
14550,27818
14443,27979
14281,28087
14091,28125
13949,28125
13759,28087
13597,27979
13507,27844
11582,27844
11504,27962
11350,28064
11252,28084
11426,28139
11593,28278
11692,28481
11648,28567
11081,28567
11081,28559
10959,28559
10959,28567
10391,28567
10347,28481
10447,28278
10614,28139
10788,28084
10689,28064
10536,27962
10434,27808
10398,27627
10434,27447
10536,27293
10689,27191
10870,27155
11170,27155
11350,27191
11504,27293
11582,27411
13507,27411
13597,27276
13759,27168
13949,27130
14091,27130
14281,27168
14443,27276
14550,27437
14588,27627
27567,27627
27567,27499
27584,27458
27469,27344
26082,27344
26004,27462
25850,27564
25670,27600
25370,27600
25189,27564
25036,27462
24934,27308
24898,27127
23142,27127
23106,27308
23004,27462
22850,27564
22670,27600
22370,27600
22189,27564
22036,27462
21934,27308
21898,27127
21934,26947
22036,26793
22189,26691
22370,26655
22670,26655
22850,26691
23004,26793
23106,26947
23142,27127
24898,27127
24934,26947
25036,26793
25189,26691
25370,26655
25670,26655
25850,26691
26004,26793
26082,26911
27559,26911
27642,26927
27712,26974
27890,27152
27929,27136
28110,27135
28276,27204
28404,27332
28473,27498
28473,27678
31163,27678
32214,26627
14588,26627
14550,26818
14443,26979
14281,27087
14091,27125
13949,27125
13759,27087
13597,26979
13507,26844
11582,26844
11504,26962
11350,27064
11170,27100
10870,27100
10689,27064
10536,26962
10434,26808
10398,26627
10434,26447
10536,26293
10689,26191
10870,26155
11170,26155
11350,26191
11504,26293
11582,26411
13507,26411
13597,26276
13759,26168
13949,26130
14091,26130
14281,26168
14443,26276
14550,26437
14588,26627
32214,26627
32303,26538
32303,25756
28473,25756
28404,25923
28277,26050
28110,26119
27930,26120
27890,26103
27712,26281
27642,26328
27559,26344
26082,26344
26004,26462
25850,26564
25670,26600
25370,26600
25189,26564
25036,26462
24934,26308
24898,26127
24934,25947
25036,25793
25189,25691
25288,25671
25114,25616
24947,25477
24847,25274
24891,25188
25459,25188
25459,25196
25581,25196
25581,25188
26148,25188
26192,25274
26093,25477
25926,25616
25752,25671
25850,25691
26004,25793
26082,25911
27469,25911
27583,25797
27567,25757
27567,25577
27636,25410
27763,25283
27929,25214
28110,25213
28276,25282
28404,25410
28473,25576
28473,25756
32303,25756
32303,24981
26192,24981
26148,25067
25581,25067
25581,25059
25459,25059
25459,25067
24891,25067
24847,24981
24947,24778
25114,24639
25288,24584
25189,24564
25036,24462
24990,24393
24630,24753
24630,24753
24569,24793
24559,24800
24476,24817
24476,24817
24137,24817
23066,25887
23106,25947
23142,26127
23106,26308
23004,26462
22850,26564
22670,26600
22370,26600
22189,26564
22036,26462
21934,26308
21898,26127
21934,25947
22036,25793
22189,25691
22370,25655
22670,25655
22683,25658
22759,25582
22670,25600
22370,25600
22189,25564
22036,25462
21934,25308
21930,25287
14580,25287
14580,25967
14568,26029
14533,26081
14481,26116
14420,26128
13620,26128
13558,26116
13506,26081
13472,26029
13459,25967
13459,25627
11642,25627
11606,25808
11504,25962
11350,26064
11170,26100
10870,26100
10689,26064
10536,25962
10434,25808
10398,25627
10434,25447
10536,25293
10689,25191
10870,25155
11170,25155
11350,25191
11504,25293
11606,25447
11642,25627
13459,25627
13459,25287
13472,25226
13506,25174
13558,25139
13620,25127
13803,25127
13803,24627
11642,24627
11606,24808
11504,24962
11350,25064
11170,25100
10870,25100
10689,25064
10536,24962
10434,24808
10398,24627
10434,24447
10536,24293
10689,24191
10870,24155
11170,24155
11350,24191
11504,24293
11606,24447
11642,24627
13803,24627
13803,23898
13533,23627
11642,23627
11606,23808
11504,23962
11350,24064
11170,24100
10870,24100
10689,24064
10536,23962
10434,23808
10398,23627
10434,23447
10536,23293
10689,23191
10870,23155
11170,23155
11350,23191
11504,23293
11606,23447
11642,23627
13533,23627
12533,22627
11642,22627
11606,22808
11504,22962
11350,23064
11170,23100
10870,23100
10689,23064
10536,22962
10434,22808
10398,22627
10434,22447
10536,22293
10689,22191
10870,22155
11170,22155
11350,22191
11504,22293
11606,22447
11642,22627
12533,22627
12117,22211
12070,22141
12053,22058
12053,21829
11851,21627
11642,21627
11606,21808
11504,21962
11350,22064
11170,22100
10870,22100
10689,22064
10536,21962
10434,21808
10398,21627
10434,21447
10536,21293
10689,21191
10870,21155
11170,21155
11350,21191
11504,21293
11606,21447
11642,21627
11851,21627
11298,21074
11170,21100
10870,21100
10689,21064
10536,20962
10434,20808
10398,20627
10434,20447
10536,20293
10689,20191
10788,20171
10614,20116
10447,19977
10347,19774
10391,19688
10959,19688
10959,19696
11081,19696
11081,19688
11648,19688
11692,19774
11593,19977
11426,20116
11252,20171
11350,20191
11504,20293
11606,20447
11642,20627
11613,20776
12423,21587
12470,21657
12486,21740
12486,21968
14173,23655
14220,23725
14236,23808
14236,25127
14420,25127
14481,25139
14533,25174
14568,25226
14580,25287
21930,25287
21898,25127
21934,24947
22036,24793
22189,24691
22288,24671
22114,24616
21947,24477
21847,24274
21891,24188
22459,24188
22459,24196
22581,24196
22581,24188
23148,24188
23192,24274
23093,24477
22926,24616
22752,24671
22850,24691
23004,24793
23106,24947
23142,25127
23124,25217
23894,24447
23964,24400
24047,24383
24387,24383
24789,23981
23192,23981
23148,24067
22581,24067
22581,24059
22459,24059
22459,24067
21891,24067
21847,23981
21947,23778
22114,23639
22288,23584
22189,23564
22036,23462
21934,23308
21898,23127
21934,22947
22036,22793
22189,22691
22370,22655
22670,22655
22850,22691
23004,22793
23106,22947
23142,23127
23106,23308
23004,23462
22850,23564
22752,23584
22926,23639
23093,23778
23192,23981
24789,23981
24796,23974
24866,23927
24949,23911
24958,23911
25036,23793
25189,23691
25370,23655
25670,23655
25850,23691
26004,23793
26106,23947
26142,24127
26106,24308
26004,24462
25850,24564
25752,24584
25926,24639
26093,24778
26192,24981
32303,24981
32303,23127
26142,23127
26106,23308
26004,23462
25850,23564
25670,23600
25370,23600
25189,23564
25036,23462
24934,23308
24898,23127
24934,22947
25036,22793
25189,22691
25370,22655
25670,22655
25850,22691
26004,22793
26106,22947
26142,23127
32303,23127
32303,22127
26142,22127
26106,22308
26004,22462
25850,22564
25670,22600
25370,22600
25189,22564
25036,22462
24934,22308
24898,22127
24934,21947
25036,21793
25189,21691
25370,21655
25670,21655
25850,21691
26004,21793
26106,21947
26142,22127
32303,22127
32303,19134
32208,19095
32053,18940
31969,18738
31969,18518
32053,18316
32089,18279
28675,18279
28236,18717
28236,19627
28220,19710
28173,19781
26673,21281
26673,21281
26632,21308
26603,21328
26520,21344
26520,21344
26082,21344
26004,21462
25850,21564
25670,21600
25370,21600
25189,21564
25036,21462
24934,21308
24898,21127
24934,20947
25036,20793
25189,20691
25370,20655
25670,20655
25850,20691
26004,20793
26082,20911
26430,20911
27214,20127
26142,20127
26106,20308
26004,20462
25850,20564
25670,20600
25370,20600
25189,20564
25036,20462
24934,20308
24898,20127
24934,19947
25036,19793
25189,19691
25370,19655
25670,19655
25850,19691
26004,19793
26106,19947
26142,20127
27214,20127
27803,19538
27803,19127
26142,19127
26106,19308
26004,19462
25850,19564
25670,19600
25370,19600
25189,19564
25036,19462
24934,19308
24898,19127
24934,18947
25036,18793
25189,18691
25370,18655
25670,18655
25850,18691
26004,18793
26106,18947
26142,19127
27803,19127
27803,18627
27820,18545
27867,18474
28214,18127
26142,18127
26106,18308
26004,18462
25850,18564
25670,18600
25370,18600
25189,18564
25036,18462
24934,18308
24898,18127
24934,17947
25036,17793
25189,17691
25370,17655
25670,17655
25850,17691
26004,17793
26106,17947
26142,18127
28214,18127
28432,17909
28502,17862
28585,17846
33455,17846
33538,17862
33608,17909
33815,18116
33910,18077
34129,18076
34332,18160
34487,18315
34571,18517
34571,18737
37833,18737
37833,17582
35889,17582
35848,17683
35611,17766
35360,17752
35191,17683
35151,17582
31389,17582
31348,17683
31111,17766
30860,17752
30691,17683
30651,17582
31020,17213
31389,17582
35151,17582
35520,17213
35889,17582
37833,17582
37833,17036
36159,17036
36145,17288
36075,17456
35974,17496
35606,17127
35434,17127
35065,17496
34965,17456
34881,17218
34891,17036
31659,17036
31645,17288
31575,17456
31474,17496
31106,17127
30934,17127
30565,17496
30465,17456
30381,17218
30395,16967
30465,16799
30565,16759
30934,17127
31106,17127
31474,16759
31575,16799
31659,17036
34891,17036
34895,16967
34965,16799
35065,16759
35434,17127
35606,17127
35974,16759
36075,16799
36159,17036
37833,17036
37833,16673
35889,16673
35520,17042
35151,16673
31389,16673
31020,17042
30651,16673
30691,16572
30929,16489
31180,16502
31348,16572
31389,16673
35151,16673
35191,16572
35429,16489
35680,16502
35848,16572
35889,16673
37833,16673
37833,12986
37518,12986
37518,13773
37506,13834
37471,13886
37419,13921
37358,13934
36374,13934
36312,13921
36260,13886
36236,13851
36236,14616
36220,14699
36173,14769
35869,15073
35913,15073
35975,15086
36027,15120
36062,15173
36074,15234
36074,16021
36062,16082
36027,16134
35975,16169
35913,16182
35126,16182
35065,16169
35013,16134
34978,16082
34966,16021
34966,15844
34527,15844
34487,15939
34332,16094
34130,16178
33911,16179
33708,16095
33553,15940
33469,15738
33469,15518
33553,15316
33707,15161
33910,15077
34129,15076
34332,15160
34487,15315
34527,15411
34966,15411
34966,15234
34978,15173
35013,15120
35065,15086
35126,15073
35312,15073
35320,15033
35367,14963
35803,14526
35803,12986
35353,12986
35353,13773
35341,13834
35306,13886
35254,13921
35193,13934
34209,13934
34147,13921
34095,13886
34061,13834
34048,13773
34048,12986
34061,12925
34095,12872
34147,12838
34209,12825
35193,12825
35254,12838
35306,12872
35341,12925
35353,12986
35803,12986
35803,12806
35752,12828
35619,12828
35496,12777
35402,12683
35350,12560
35350,12427
35375,12367
35354,12367
35354,12404
35318,12492
35250,12559
35163,12595
34782,12595
34723,12535
34723,12307
34601,12307
34601,12535
34541,12595
34161,12595
34073,12559
34006,12492
33970,12404
33970,12367
34029,12307
34601,12307
34723,12307
35294,12307
35354,12367
35375,12367
35401,12304
35495,12210
35618,12159
35751,12159
35803,12180
35803,12052
35354,12052
35354,12089
35350,12100
35354,12111
35354,12148
35294,12208
35286,12208
35250,12244
35163,12280
34782,12280
34723,12220
34723,11979
34601,11979
34601,12220
34541,12280
34161,12280
34073,12244
34038,12208
34029,12208
33970,12148
33970,12111
33974,12100
33970,12089
33970,12052
34029,11992
34038,11992
34073,11956
34161,11920
34541,11920
34601,11979
34723,11979
34782,11920
35163,11920
35250,11956
35286,11992
35294,11992
35354,12052
35803,12052
35803,11844
35344,11844
35294,11893
34723,11893
34723,11887
34601,11887
34601,11893
34029,11893
33970,11833
33970,11796
34006,11708
34048,11666
34048,11622
32736,12934
32736,15121
32832,15160
32987,15315
33071,15517
33071,15737
32987,15939
32832,16094
32630,16178
32411,16179
32208,16095
32053,15940
32013,15844
31574,15844
31574,16021
31562,16082
31527,16134
31475,16169
31413,16182
30626,16182
30565,16169
30513,16134
30478,16082
30466,16021
30466,15234
30478,15173
30513,15120
30565,15086
30626,15073
31413,15073
31475,15086
31527,15120
31562,15173
31574,15234
31574,15411
32013,15411
32053,15316
32207,15161
32303,15121
32303,13737
30071,13737
29987,13939
29832,14094
29630,14178
29411,14179
29208,14095
29053,13940
28969,13738
28969,13737
27071,13737
26987,13939
26832,14094
26630,14178
26411,14179
26208,14095
26053,13940
25969,13738
25969,13518
26053,13316
26207,13161
26410,13077
26629,13076
26832,13160
26987,13315
27071,13517
27071,13737
28969,13737
28969,13518
29053,13316
29207,13161
29410,13077
29629,13076
29832,13160
29987,13315
30071,13517
30071,13737
32303,13737
32303,12844
32320,12761
32367,12691
33898,11159
33905,11155
33898,11151
32367,9619
32320,9549
32303,9466
32303,8817
31831,8817
31769,8805
31717,8770
31683,8718
31670,8656
31670,7287
27639,7287
27570,7453
27461,7575
27481,7579
27533,7614
27568,7666
27580,7727
27580,8527
27568,8589
27533,8641
27481,8676
27420,8688
26620,8688
26558,8676
26506,8641
26472,8589
26459,8527
26459,7734
24574,7734
24574,8521
24562,8583
24527,8635
24475,8669
24414,8682
24236,8682
24236,21627
24220,21710
24173,21781
23673,22281
23603,22328
23520,22344
23082,22344
23004,22462
22850,22564
22670,22600
22370,22600
22189,22564
22036,22462
21934,22308
21898,22127
21934,21947
22036,21793
22189,21691
22370,21655
22670,21655
22850,21691
23004,21793
23082,21911
23430,21911
23803,21538
23803,21127
23142,21127
23106,21308
23004,21462
22850,21564
22670,21600
22370,21600
22189,21564
22036,21462
21934,21308
21898,21127
21934,20947
22036,20793
22189,20691
22370,20655
22670,20655
22850,20691
23004,20793
23106,20947
23142,21127
23803,21127
23803,20127
23142,20127
23106,20308
23004,20462
22850,20564
22670,20600
22370,20600
22189,20564
22036,20462
21934,20308
21898,20127
21934,19947
22036,19793
22189,19691
22370,19655
22670,19655
22850,19691
23004,19793
23106,19947
23142,20127
23803,20127
23803,19127
23142,19127
23106,19308
23004,19462
22850,19564
22670,19600
22370,19600
22189,19564
22036,19462
21934,19308
21928,19277
14640,19277
14549,19467
14383,19621
14171,19700
14081,19647
14081,19188
13959,19188
13959,19647
13869,19700
13657,19621
13506,19481
11692,19481
11648,19567
11081,19567
11081,19559
10959,19559
10959,19567
10391,19567
10347,19481
10447,19278
10614,19139
10788,19084
10689,19064
10536,18962
10434,18808
10398,18627
10434,18447
10536,18293
10689,18191
10870,18155
11170,18155
11350,18191
11504,18293
11606,18447
11642,18627
11606,18808
11504,18962
11350,19064
11252,19084
11426,19139
11593,19278
11692,19481
13506,19481
13491,19467
13400,19277
13444,19188
13959,19188
14081,19188
14596,19188
14640,19277
21928,19277
21898,19127
21928,18977
14640,18977
14596,19067
14081,19067
14081,19059
13959,19059
13959,19067
13444,19067
13400,18977
13491,18787
13657,18634
13774,18590
13759,18587
13597,18479
13489,18318
13451,18127
13489,17937
13597,17776
13759,17668
13949,17630
14091,17630
14281,17668
14443,17776
14550,17937
14588,18127
14550,18318
14443,18479
14281,18587
14265,18590
14383,18634
14549,18787
14640,18977
21928,18977
21934,18947
22036,18793
22189,18691
22370,18655
22670,18655
22850,18691
23004,18793
23106,18947
23142,19127
23803,19127
23803,18127
23142,18127
23106,18308
23004,18462
22850,18564
22670,18600
22370,18600
22189,18564
22036,18462
21934,18308
21898,18127
21934,17947
22036,17793
22189,17691
22370,17655
22670,17655
22850,17691
23004,17793
23106,17947
23142,18127
23803,18127
23803,8682
23626,8682
23565,8669
23513,8635
23478,8583
23466,8521
23466,7734
22074,7734
22074,8521
22062,8583
22027,8635
21975,8669
21914,8682
21126,8682
21065,8669
21013,8635
20978,8583
20966,8521
20966,7734
20978,7672
21013,7620
21065,7585
21126,7573
21186,7573
21053,7440
20969,7238
20969,7018
21052,6816
21207,6660
21287,6627
18527,6627
18489,6818
18381,6979
18220,7087
18030,7125
18010,7125
17820,7087
17658,6979
17551,6818
17520,6664
17489,6818
17381,6979
17220,7087
17212,7089
17373,7168
17522,7338
17558,7426
17658,7276
17820,7168
18010,7130
18030,7130
18220,7168
18381,7276
18489,7437
18527,7627
18489,7818
18381,7979
18236,8076
18236,12630
18220,12713
18173,12783
14329,16627
14420,16627
14481,16639
14533,16674
14568,16726
14580,16787
14580,17467
14568,17529
14533,17581
14481,17616
14420,17628
13620,17628
13558,17616
13506,17581
13472,17529
13459,17467
13459,16787
13472,16726
13506,16674
13558,16639
13620,16627
13804,16627
13820,16547
13867,16477
17803,12540
17803,8076
17658,7979
17558,7829
17522,7917
17373,8087
17170,8187
17081,8144
17081,7688
16959,7688
16959,8144
16870,8187
16667,8087
16518,7917
16460,7777
16504,7688
16959,7688
17081,7688
17088,7688
17088,7567
17081,7567
17081,7559
16959,7559
16959,7567
16504,7567
16460,7477
16518,7338
16667,7168
16828,7089
16820,7087
16658,6979
16585,6869
16236,7217
16236,9454
16220,9537
16173,9607
11493,14287
11504,14293
11606,14447
11642,14627
11606,14808
11504,14962
11350,15064
11170,15100
10870,15100
10689,15064
10536,14962
10458,14844
7797,14844
7714,14828
7644,14781
7180,14317
6063,14317
5980,14300
5910,14253
5550,13893
5504,13962
5350,14064
5170,14100
4870,14100
4689,14064
4622,14019
4622,14236
4689,14191
4870,14155
5170,14155
5350,14191
5504,14293
5606,14447
5642,14627
5606,14808
5519,14938
7270,14938
7270,14938
7353,14955
7423,15002
7423,15002
7832,15411
10458,15411
10536,15293
10689,15191
10870,15155
11170,15155
11350,15191
11504,15293
11606,15447
11642,15627
11606,15808
11504,15962
11350,16064
11170,16100
10870,16100
10689,16064
10536,15962
10458,15844
7742,15844
7660,15828
7589,15781
7180,15371
5556,15371
5606,15447
5642,15627
5606,15808
5504,15962
5350,16064
5170,16100
4870,16100
4689,16064
4536,15962
4434,15808
4398,15627
4434,15447
4536,15293
4554,15281
4377,15105
4377,16790
4499,16911
4502,16911
4434,16808
4398,16627
4434,16447
4536,16293
4689,16191
4870,16155
5170,16155
5350,16191
5504,16293
5606,16447
5642,16627
5606,16808
5538,16911
10502,16911
10434,16808
10398,16627
10434,16447
10536,16293
10689,16191
10870,16155
11170,16155
11350,16191
11504,16293
11606,16447
11642,16627
11606,16808
11504,16962
11350,17064
11236,17087
11236,17100
11223,17166
11350,17191
11504,17293
11606,17447
11642,17627
11606,17808
11504,17962
11350,18064
11170,18100
10870,18100
10689,18064
10536,17962
10434,17808
10398,17627
10434,17447
10502,17344
5538,17344
5606,17447
5642,17627
5606,17808
5504,17962
5350,18064
5252,18084
5426,18139
5593,18278
5692,18481
5648,18567
5081,18567
5081,18559
4959,18559
4959,18567
4951,18567
4951,18688
4959,18688
4959,18696
5081,18696
5081,18688
5648,18688
5692,18774
5593,18977
5426,19116
5252,19171
5350,19191
5504,19293
5606,19447
5642,19627
5606,19808
5504,19962
5350,20064
5170,20100
4870,20100
4689,20064
4536,19962
4486,19887
4486,20368
4536,20293
4689,20191
4870,20155
5170,20155
5350,20191
5504,20293
5606,20447
5642,20627
5606,20808
5504,20962
5350,21064
5170,21100
4870,21100
4689,21064
4536,20962
4486,20887
4486,21359
4490,21362
4536,21293
4689,21191
4870,21155
5170,21155
5350,21191
5504,21293
5582,21411
5591,21411
5591,21411
5674,21427
5744,21474
6173,21903
6220,21974
6236,22057
6236,25765
6220,25848
6173,25918
5613,26479
5642,26627
5606,26808
5504,26962
5350,27064
5170,27100
4870,27100
4689,27064
4536,26962
4486,26887
4486,27368
4536,27293
4689,27191
4870,27155
5170,27155
5350,27191
5504,27293
5606,27447
5642,27627
5606,27808
5504,27962
5350,28064
5170,28100
4870,28100
4689,28064
4536,27962
4486,27887
4486,27926
4741,28181
4870,28155
5170,28155
5350,28191
5504,28293
5606,28447
5642,28627
5606,28808
5504,28962
5350,29064
5170,29100
4870,29100
4689,29064
4536,28962
4434,28808
4398,28627
4427,28479
4117,28168
4070,28098
4053,28015
4053,23807
4070,23724
4117,23653
4296,23474
4366,23427
4449,23411
4458,23411
4536,23293
4689,23191
4870,23155
5170,23155
5350,23191
5504,23293
5606,23447
5642,23627
5606,23808
5504,23962
5350,24064
5170,24100
4870,24100
4689,24064
4536,23962
4490,23893
4486,23896
4486,24368
4536,24293
4689,24191
4870,24155
5170,24155
5350,24191
5504,24293
5606,24447
5642,24627
5606,24808
5504,24962
5350,25064
5170,25100
4870,25100
4689,25064
4536,24962
4486,24887
4486,25368
4536,25293
4689,25191
4870,25155
5170,25155
5350,25191
5504,25293
5606,25447
5642,25627
5606,25808
5504,25962
5350,26064
5170,26100
4870,26100
4689,26064
4536,25962
4486,25887
4486,26368
4536,26293
4689,26191
4870,26155
5170,26155
5298,26181
5803,25676
5803,22627
5642,22627
5606,22808
5504,22962
5350,23064
5170,23100
4870,23100
4689,23064
4536,22962
4434,22808
4398,22627
4434,22447
4536,22293
4689,22191
4870,22155
5170,22155
5350,22191
5504,22293
5606,22447
5642,22627
5803,22627
5803,22146
5550,21893
5504,21962
5350,22064
5170,22100
4870,22100
4689,22064
4536,21962
4458,21844
4449,21844
4366,21828
4296,21781
4117,21601
4070,21531
4053,21448
4053,17267
4053,17267
4070,17184
4070,17183
4106,17130
4008,17032
4008,17032
3961,16962
3944,16879
3944,12236
3961,12154
4008,12083
4008,12083
4367,11724
4411,11695
4398,11627
4434,11447
4536,11293
4689,11191
4870,11155
5170,11155
5350,11191
5504,11293
5606,11447
5642,11627
5606,11808
5504,11962
5350,12064
5170,12100
4870,12100
4725,12071
4715,12078
4632,12094
4632,12094
4610,12094
4377,12326
4377,12964
4473,12868
4434,12808
4398,12627
4434,12447
4536,12293
4689,12191
4870,12155
5170,12155
5350,12191
5504,12293
5606,12447
5642,12627
5606,12808
5504,12962
5350,13064
5170,13100
4870,13100
4856,13097
4781,13173
4870,13155
5170,13155
5350,13191
5504,13293
5582,13411
5591,13411
5591,13411
5674,13427
5744,13474
5744,13474
6153,13883
7270,13883
7353,13900
7423,13947
7887,14411
10458,14411
10536,14293
10689,14191
10870,14155
11013,14155
11068,14100
10870,14100
10689,14064
10536,13962
10434,13808
10398,13627
10434,13447
10536,13293
10689,13191
10870,13155
11170,13155
11350,13191
11504,13293
11606,13447
11625,13542
12540,12627
11642,12627
11606,12808
11504,12962
11350,13064
11170,13100
10870,13100
10689,13064
10536,12962
10434,12808
10398,12627
10434,12447
10536,12293
10689,12191
10870,12155
11170,12155
11350,12191
11504,12293
11606,12447
11642,12627
12540,12627
13540,11627
11642,11627
11606,11808
11504,11962
11350,12064
11170,12100
10870,12100
10689,12064
10536,11962
10434,11808
10398,11627
10434,11447
10536,11293
10689,11191
10870,11155
11170,11155
11350,11191
11504,11293
11606,11447
11642,11627
13540,11627
14540,10627
11642,10627
11606,10808
11504,10962
11350,11064
11170,11100
10870,11100
10689,11064
10536,10962
10434,10808
10398,10627
5642,10627
5606,10808
5504,10962
5350,11064
5170,11100
4870,11100
4689,11064
4536,10962
4434,10808
4398,10627
4434,10447
4536,10293
4689,10191
4870,10155
5170,10155
5350,10191
5504,10293
5606,10447
5642,10627
10398,10627
10434,10447
10536,10293
10689,10191
10870,10155
11170,10155
11350,10191
11504,10293
11606,10447
11642,10627
14540,10627
15540,9627
11642,9627
11606,9808
11504,9962
11350,10064
11170,10100
10870,10100
10689,10064
10536,9962
10434,9808
10398,9627
5642,9627
5606,9808
5504,9962
5350,10064
5170,10100
4870,10100
4689,10064
4536,9962
4434,9808
4398,9627
4434,9447
4536,9293
4689,9191
4870,9155
5170,9155
5350,9191
5504,9293
5606,9447
5642,9627
10398,9627
10434,9447
10536,9293
10689,9191
10870,9155
11170,9155
11350,9191
11504,9293
11606,9447
11642,9627
15540,9627
15803,9364
15803,7127
15820,7045
15867,6974
16367,6474
16437,6427
16520,6411
16568,6411
16658,6276
16820,6168
17010,6130
17030,6130
17220,6168
17381,6276
17489,6437
17520,6591
17551,6437
17658,6276
17820,6168
18010,6130
18030,6130
18220,6168
18381,6276
18489,6437
18527,6627
21287,6627
21410,6576
21629,6576
21832,6660
21987,6815
22071,7017
22071,7237
21987,7439
21854,7573
21914,7573
21975,7585
22027,7620
22062,7672
22074,7734
23466,7734
23478,7672
23513,7620
23565,7585
23626,7573
23686,7573
23553,7440
23469,7238
23469,7018
23552,6816
23707,6660
23910,6576
24129,6576
24332,6660
24487,6815
24571,7017
24571,7237
24487,7439
24354,7573
24414,7573
24475,7585
24527,7620
24562,7672
24574,7734
26459,7734
26459,7727
26472,7666
26506,7614
26558,7579
26579,7575
26469,7453
26401,7287
26444,7188
26959,7188
26959,7196
27081,7196
27081,7188
27596,7188
27639,7287
31670,7287
31670,7278
31683,7217
31717,7165
31769,7130
31831,7118
33209,7118
33270,7130
33322,7165
33357,7217
33369,7278
33369,8656
33357,8718
33322,8770
33270,8805
33209,8817
32736,8817
32736,9376
34125,10765
34147,10751
34209,10738
35115,10738
35176,10751
35228,10785
35263,10838
35275,10899
35275,11096
35264,11155
35275,11214
35275,11411
36020,11411
36103,11427
36173,11474
36220,11545
36236,11627
36236,12908
36260,12872
36312,12838
36374,12825
37358,12825
37419,12838
37471,12872
37506,12925
37518,12986
37833,12986
37833,10828
36019,10828
35969,10951
35875,11045
35752,11096
35619,11096
35496,11045
35402,10951
35350,10828
35350,10695
35401,10572
35495,10478
35618,10427
35751,10427
35874,10478
35968,10572
36019,10695
36019,10828
37833,10828
37833,9482
37518,9482
37518,10269
37506,10330
37471,10382
37419,10417
37358,10430
36374,10430
36312,10417
36260,10382
36226,10330
36213,10269
36213,9482
35353,9482
35353,10269
35341,10330
35306,10382
35254,10417
35193,10430
34209,10430
34147,10417
34095,10382
34061,10330
34048,10269
34048,9482
34061,9421
34095,9368
34147,9334
34209,9321
35193,9321
35254,9334
35306,9368
35341,9421
35353,9482
36213,9482
36226,9421
36260,9368
36312,9334
36374,9321
37358,9321
37419,9334
37471,9368
37506,9421
37518,9482
37833,9482
37833,6968
27639,6968
27596,7067
27081,7067
27081,6551
26959,6551
26959,7067
26444,7067
26401,6968
26469,6802
26636,6616
26860,6508
26959,6551
27081,6551
27179,6508
27404,6616
27570,6802
27639,6968
37833,6968
37833,6466
30289,6466
30266,6553
30078,6613
29882,6597
29774,6553
29751,6466
30020,6197
30289,6466
37833,6466
37833,5876
37183,5876
37093,6019
36708,6170
36295,6163
35947,6019
35857,5876
36520,5213
37183,5876
37833,5876
37833,4939
37563,4939
37555,5353
37411,5700
37268,5790
36606,5127
36434,5127
35771,5790
35628,5700
35477,5315
35484,4902
35610,4598
33369,4598
33369,5976
33357,6038
33322,6090
33270,6125
33209,6137
31831,6137
31769,6125
31717,6090
31693,6054
30522,6054
30506,6250
30461,6357
30375,6381
30106,6112
29934,6112
29665,6381
29579,6357
29518,6170
29534,5973
29579,5866
29665,5843
29934,6112
30106,6112
30375,5843
30461,5866
30522,6054
31693,6054
31683,6038
31670,5976
31670,5757
30289,5757
30020,6026
29751,5757
29774,5670
29962,5610
30158,5626
30266,5670
30289,5757
31670,5757
31670,5503
31590,5488
31520,5441
31424,5344
30436,5344
30436,5383
30424,5445
30389,5497
30337,5532
30276,5544
29764,5544
29703,5532
29650,5497
29616,5445
29603,5383
29603,5287
18520,5287
18520,5967
18508,6029
18473,6081
18421,6116
18360,6128
17680,6128
17618,6116
17566,6081
17532,6029
17519,5967
17519,5667
17489,5818
17381,5979
17220,6087
17030,6125
17010,6125
16820,6087
16658,5979
16589,5876
2183,5876
2093,6019
1708,6170
1295,6163
947,6019
857,5876
1520,5213
2183,5876
16589,5876
16551,5818
16513,5627
16551,5437
16658,5276
16820,5168
17010,5130
17030,5130
17220,5168
17381,5276
17489,5437
17519,5588
17519,5287
17532,5226
17566,5174
17618,5139
17680,5127
18360,5127
18421,5139
18473,5174
18508,5226
18520,5287
29603,5287
29603,4939
2563,4939
2555,5353
2411,5700
2268,5790
1606,5127
1434,5127
771,5790
628,5700
477,5315
484,4902
628,4555
771,4465
1434,5127
1606,5127
2268,4465
2411,4555
2563,4939
29603,4939
29603,4872
29616,4810
29650,4758
29703,4723
29764,4711
30276,4711
30337,4723
30389,4758
30424,4810
30436,4872
30436,4911
31513,4911
31596,4927
31666,4974
31666,4974
31670,4978
31670,4598
31683,4537
31717,4485
31769,4450
31831,4438
33209,4438
33270,4450
33322,4485
33357,4537
33369,4598
35610,4598
35628,4555
35771,4465
36434,5127
36606,5127
37268,4465
37411,4555
37563,4939
37833,4939
37833,4379
37183,4379
36520,5042
35857,4379
2183,4379
1520,5042
857,4379
947,4236
1332,4085
1745,4092
2093,4236
2183,4379
35857,4379
35947,4236
36332,4085
36745,4092
37093,4236
37183,4379
37833,4379
37833,3814
207,3814
207,33440
" /> 
</g>
<g style="fill:#FFFFFF; fill-opacity:1.0; 
stroke:#FFFFFF; stroke-width:78.7402; stroke-opacity:1; 
stroke-linecap:round; stroke-linejoin:round;">
</g>
<g style="fill:#FFFFFF; fill-opacity:1.0; 
stroke:#FFFFFF; stroke-width:0; stroke-opacity:1; 
stroke-linecap:round; stroke-linejoin:round;">
<circle cx="14020.4" cy="25628" r="200" /> 
</g>
<g style="fill:#FFFFFF; fill-opacity:1.0; 
stroke:#FFFFFF; stroke-width:39.3701; stroke-opacity:1; 
stroke-linecap:round; stroke-linejoin:round;">
</g>
<g style="fill:#FFFFFF; fill-opacity:1.0; 
stroke:#FFFFFF; stroke-width:0; stroke-opacity:1; 
stroke-linecap:round; stroke-linejoin:round;">
<circle cx="14020.4" cy="26628" r="200" /> 
</g>
<g style="fill:#FFFFFF; fill-opacity:1.0; 
stroke:#FFFFFF; stroke-width:39.3701; stroke-opacity:1; 
stroke-linecap:round; stroke-linejoin:round;">
</g>
<g style="fill:#FFFFFF; fill-opacity:1.0; 
stroke:#FFFFFF; stroke-width:0; stroke-opacity:1; 
stroke-linecap:round; stroke-linejoin:round;">
<circle cx="14020.4" cy="27628" r="200" /> 
</g>
<g style="fill:#FFFFFF; fill-opacity:1.0; 
stroke:#FFFFFF; stroke-width:39.3701; stroke-opacity:1; 
stroke-linecap:round; stroke-linejoin:round;">
</g>
<g style="fill:#FFFFFF; fill-opacity:1.0; 
stroke:#FFFFFF; stroke-width:0; stroke-opacity:1; 
stroke-linecap:round; stroke-linejoin:round;">
<circle cx="18020.4" cy="5627.95" r="200" /> 
</g>
<g style="fill:#FFFFFF; fill-opacity:1.0; 
stroke:#FFFFFF; stroke-width:39.3701; stroke-opacity:1; 
stroke-linecap:round; stroke-linejoin:round;">
</g>
<g style="fill:#FFFFFF; fill-opacity:1.0; 
stroke:#FFFFFF; stroke-width:0; stroke-opacity:1; 
stroke-linecap:round; stroke-linejoin:round;">
<circle cx="17020.4" cy="5627.95" r="200" /> 
</g>
<g style="fill:#FFFFFF; fill-opacity:1.0; 
stroke:#FFFFFF; stroke-width:39.3701; stroke-opacity:1; 
stroke-linecap:round; stroke-linejoin:round;">
</g>
<g style="fill:#FFFFFF; fill-opacity:1.0; 
stroke:#FFFFFF; stroke-width:0; stroke-opacity:1; 
stroke-linecap:round; stroke-linejoin:round;">
<circle cx="18020.4" cy="6627.95" r="200" /> 
</g>
<g style="fill:#FFFFFF; fill-opacity:1.0; 
stroke:#FFFFFF; stroke-width:39.3701; stroke-opacity:1; 
stroke-linecap:round; stroke-linejoin:round;">
</g>
<g style="fill:#FFFFFF; fill-opacity:1.0; 
stroke:#FFFFFF; stroke-width:0; stroke-opacity:1; 
stroke-linecap:round; stroke-linejoin:round;">
<circle cx="17020.4" cy="6627.95" r="200" /> 
</g>
<g style="fill:#FFFFFF; fill-opacity:1.0; 
stroke:#FFFFFF; stroke-width:39.3701; stroke-opacity:1; 
stroke-linecap:round; stroke-linejoin:round;">
</g>
<g style="fill:#FFFFFF; fill-opacity:1.0; 
stroke:#FFFFFF; stroke-width:0; stroke-opacity:1; 
stroke-linecap:round; stroke-linejoin:round;">
<circle cx="18020.4" cy="7627.95" r="200" /> 
</g>
<g style="fill:#FFFFFF; fill-opacity:1.0; 
stroke:#FFFFFF; stroke-width:39.3701; stroke-opacity:1; 
stroke-linecap:round; stroke-linejoin:round;">
</g>
<g style="fill:#FFFFFF; fill-opacity:1.0; 
stroke:#FFFFFF; stroke-width:0; stroke-opacity:1; 
stroke-linecap:round; stroke-linejoin:round;">
<circle cx="17020.4" cy="7627.95" r="200" /> 
</g>
<g style="fill:#FFFFFF; fill-opacity:1.0; 
stroke:#FFFFFF; stroke-width:39.3701; stroke-opacity:1; 
stroke-linecap:round; stroke-linejoin:round;">
</g>
<g style="fill:#FFFFFF; fill-opacity:1.0; 
stroke:#FFFFFF; stroke-width:0; stroke-opacity:1; 
stroke-linecap:round; stroke-linejoin:round;">
<circle cx="14020.4" cy="17128" r="200" /> 
</g>
<g style="fill:#FFFFFF; fill-opacity:1.0; 
stroke:#FFFFFF; stroke-width:39.3701; stroke-opacity:1; 
stroke-linecap:round; stroke-linejoin:round;">
</g>
<g style="fill:#FFFFFF; fill-opacity:1.0; 
stroke:#FFFFFF; stroke-width:0; stroke-opacity:1; 
stroke-linecap:round; stroke-linejoin:round;">
<circle cx="14020.4" cy="18128" r="200" /> 
</g>
<g style="fill:#FFFFFF; fill-opacity:1.0; 
stroke:#FFFFFF; stroke-width:39.3701; stroke-opacity:1; 
stroke-linecap:round; stroke-linejoin:round;">
</g>
<g style="fill:#FFFFFF; fill-opacity:1.0; 
stroke:#FFFFFF; stroke-width:0; stroke-opacity:1; 
stroke-linecap:round; stroke-linejoin:round;">
<circle cx="14020.4" cy="19128" r="200" /> 
</g>
<g style="fill:#FFFFFF; fill-opacity:1.0; 
stroke:#FFFFFF; stroke-width:39.3701; stroke-opacity:1; 
stroke-linecap:round; stroke-linejoin:round;">
</g>
<g style="fill:#FFFFFF; fill-opacity:1.0; 
stroke:#FFFFFF; stroke-width:0; stroke-opacity:1; 
stroke-linecap:round; stroke-linejoin:round;">
<circle cx="27020.4" cy="8127.95" r="200" /> 
</g>
<g style="fill:#FFFFFF; fill-opacity:1.0; 
stroke:#FFFFFF; stroke-width:39.3701; stroke-opacity:1; 
stroke-linecap:round; stroke-linejoin:round;">
</g>
<g style="fill:#FFFFFF; fill-opacity:1.0; 
stroke:#FFFFFF; stroke-width:0; stroke-opacity:1; 
stroke-linecap:round; stroke-linejoin:round;">
<circle cx="27020.4" cy="7127.95" r="200" /> 
</g>
<g style="fill:#FFFFFF; fill-opacity:1.0; 
stroke:#FFFFFF; stroke-width:39.3701; stroke-opacity:1; 
stroke-linecap:round; stroke-linejoin:round;">
</g>
<g style="fill:#FFFFFF; fill-opacity:1.0; 
stroke:#FFFFFF; stroke-width:0; stroke-opacity:1; 
stroke-linecap:round; stroke-linejoin:round;">
<circle cx="24020.4" cy="8127.95" r="197" /> 
</g>
<g style="fill:#FFFFFF; fill-opacity:1.0; 
stroke:#FFFFFF; stroke-width:39.3701; stroke-opacity:1; 
stroke-linecap:round; stroke-linejoin:round;">
</g>
<g style="fill:#FFFFFF; fill-opacity:1.0; 
stroke:#FFFFFF; stroke-width:0; stroke-opacity:1; 
stroke-linecap:round; stroke-linejoin:round;">
<circle cx="24020.4" cy="7127.95" r="197" /> 
</g>
<g style="fill:#FFFFFF; fill-opacity:1.0; 
stroke:#FFFFFF; stroke-width:39.3701; stroke-opacity:1; 
stroke-linecap:round; stroke-linejoin:round;">
</g>
<g style="fill:#FFFFFF; fill-opacity:1.0; 
stroke:#FFFFFF; stroke-width:0; stroke-opacity:1; 
stroke-linecap:round; stroke-linejoin:round;">
<circle cx="21520.4" cy="8127.95" r="197" /> 
</g>
<g style="fill:#FFFFFF; fill-opacity:1.0; 
stroke:#FFFFFF; stroke-width:39.3701; stroke-opacity:1; 
stroke-linecap:round; stroke-linejoin:round;">
</g>
<g style="fill:#FFFFFF; fill-opacity:1.0; 
stroke:#FFFFFF; stroke-width:0; stroke-opacity:1; 
stroke-linecap:round; stroke-linejoin:round;">
<circle cx="21520.4" cy="7127.95" r="197" /> 
</g>
<g style="fill:#FFFFFF; fill-opacity:1.0; 
stroke:#FFFFFF; stroke-width:39.3701; stroke-opacity:1; 
stroke-linecap:round; stroke-linejoin:round;">
</g>
<g style="fill:#FFFFFF; fill-opacity:1.0; 
stroke:#FFFFFF; stroke-width:0; stroke-opacity:1; 
stroke-linecap:round; stroke-linejoin:round;">
<circle cx="25520.4" cy="18128" r="157.48" /> 
</g>
<g style="fill:#FFFFFF; fill-opacity:1.0; 
stroke:#FFFFFF; stroke-width:39.3701; stroke-opacity:1; 
stroke-linecap:round; stroke-linejoin:round;">
</g>
<g style="fill:#FFFFFF; fill-opacity:1.0; 
stroke:#FFFFFF; stroke-width:0; stroke-opacity:1; 
stroke-linecap:round; stroke-linejoin:round;">
<circle cx="25520.4" cy="19128" r="157.48" /> 
</g>
<g style="fill:#FFFFFF; fill-opacity:1.0; 
stroke:#FFFFFF; stroke-width:39.3701; stroke-opacity:1; 
stroke-linecap:round; stroke-linejoin:round;">
</g>
<g style="fill:#FFFFFF; fill-opacity:1.0; 
stroke:#FFFFFF; stroke-width:0; stroke-opacity:1; 
stroke-linecap:round; stroke-linejoin:round;">
<circle cx="25520.4" cy="20128" r="157.48" /> 
</g>
<g style="fill:#FFFFFF; fill-opacity:1.0; 
stroke:#FFFFFF; stroke-width:39.3701; stroke-opacity:1; 
stroke-linecap:round; stroke-linejoin:round;">
</g>
<g style="fill:#FFFFFF; fill-opacity:1.0; 
stroke:#FFFFFF; stroke-width:0; stroke-opacity:1; 
stroke-linecap:round; stroke-linejoin:round;">
<circle cx="25520.4" cy="21128" r="157.48" /> 
</g>
<g style="fill:#FFFFFF; fill-opacity:1.0; 
stroke:#FFFFFF; stroke-width:39.3701; stroke-opacity:1; 
stroke-linecap:round; stroke-linejoin:round;">
</g>
<g style="fill:#FFFFFF; fill-opacity:1.0; 
stroke:#FFFFFF; stroke-width:0; stroke-opacity:1; 
stroke-linecap:round; stroke-linejoin:round;">
<circle cx="25520.4" cy="22128" r="157.48" /> 
</g>
<g style="fill:#FFFFFF; fill-opacity:1.0; 
stroke:#FFFFFF; stroke-width:39.3701; stroke-opacity:1; 
stroke-linecap:round; stroke-linejoin:round;">
</g>
<g style="fill:#FFFFFF; fill-opacity:1.0; 
stroke:#FFFFFF; stroke-width:0; stroke-opacity:1; 
stroke-linecap:round; stroke-linejoin:round;">
<circle cx="25520.4" cy="23128" r="157.48" /> 
</g>
<g style="fill:#FFFFFF; fill-opacity:1.0; 
stroke:#FFFFFF; stroke-width:39.3701; stroke-opacity:1; 
stroke-linecap:round; stroke-linejoin:round;">
</g>
<g style="fill:#FFFFFF; fill-opacity:1.0; 
stroke:#FFFFFF; stroke-width:0; stroke-opacity:1; 
stroke-linecap:round; stroke-linejoin:round;">
<circle cx="25520.4" cy="24128" r="157.48" /> 
</g>
<g style="fill:#FFFFFF; fill-opacity:1.0; 
stroke:#FFFFFF; stroke-width:39.3701; stroke-opacity:1; 
stroke-linecap:round; stroke-linejoin:round;">
</g>
<g style="fill:#FFFFFF; fill-opacity:1.0; 
stroke:#FFFFFF; stroke-width:0; stroke-opacity:1; 
stroke-linecap:round; stroke-linejoin:round;">
<circle cx="25520.4" cy="25128" r="157.48" /> 
</g>
<g style="fill:#FFFFFF; fill-opacity:1.0; 
stroke:#FFFFFF; stroke-width:39.3701; stroke-opacity:1; 
stroke-linecap:round; stroke-linejoin:round;">
</g>
<g style="fill:#FFFFFF; fill-opacity:1.0; 
stroke:#FFFFFF; stroke-width:0; stroke-opacity:1; 
stroke-linecap:round; stroke-linejoin:round;">
<circle cx="25520.4" cy="26128" r="157.48" /> 
</g>
<g style="fill:#FFFFFF; fill-opacity:1.0; 
stroke:#FFFFFF; stroke-width:39.3701; stroke-opacity:1; 
stroke-linecap:round; stroke-linejoin:round;">
</g>
<g style="fill:#FFFFFF; fill-opacity:1.0; 
stroke:#FFFFFF; stroke-width:0; stroke-opacity:1; 
stroke-linecap:round; stroke-linejoin:round;">
<circle cx="25520.4" cy="27128" r="157.48" /> 
</g>
<g style="fill:#FFFFFF; fill-opacity:1.0; 
stroke:#FFFFFF; stroke-width:39.3701; stroke-opacity:1; 
stroke-linecap:round; stroke-linejoin:round;">
</g>
<g style="fill:#FFFFFF; fill-opacity:1.0; 
stroke:#FFFFFF; stroke-width:0; stroke-opacity:1; 
stroke-linecap:round; stroke-linejoin:round;">
<circle cx="25520.4" cy="28128" r="157.48" /> 
</g>
<g style="fill:#FFFFFF; fill-opacity:1.0; 
stroke:#FFFFFF; stroke-width:39.3701; stroke-opacity:1; 
stroke-linecap:round; stroke-linejoin:round;">
</g>
<g style="fill:#FFFFFF; fill-opacity:1.0; 
stroke:#FFFFFF; stroke-width:0; stroke-opacity:1; 
stroke-linecap:round; stroke-linejoin:round;">
<circle cx="25520.4" cy="29128" r="157.48" /> 
</g>
<g style="fill:#FFFFFF; fill-opacity:1.0; 
stroke:#FFFFFF; stroke-width:39.3701; stroke-opacity:1; 
stroke-linecap:round; stroke-linejoin:round;">
</g>
<g style="fill:#FFFFFF; fill-opacity:1.0; 
stroke:#FFFFFF; stroke-width:0; stroke-opacity:1; 
stroke-linecap:round; stroke-linejoin:round;">
<circle cx="25520.4" cy="30128" r="157.48" /> 
</g>
<g style="fill:#FFFFFF; fill-opacity:1.0; 
stroke:#FFFFFF; stroke-width:39.3701; stroke-opacity:1; 
stroke-linecap:round; stroke-linejoin:round;">
</g>
<g style="fill:#FFFFFF; fill-opacity:1.0; 
stroke:#FFFFFF; stroke-width:0; stroke-opacity:1; 
stroke-linecap:round; stroke-linejoin:round;">
<circle cx="25520.4" cy="31128" r="157.48" /> 
</g>
<g style="fill:#FFFFFF; fill-opacity:1.0; 
stroke:#FFFFFF; stroke-width:39.3701; stroke-opacity:1; 
stroke-linecap:round; stroke-linejoin:round;">
</g>
<g style="fill:#FFFFFF; fill-opacity:1.0; 
stroke:#FFFFFF; stroke-width:0; stroke-opacity:1; 
stroke-linecap:round; stroke-linejoin:round;">
<circle cx="22520.4" cy="31128" r="157.48" /> 
</g>
<g style="fill:#FFFFFF; fill-opacity:1.0; 
stroke:#FFFFFF; stroke-width:39.3701; stroke-opacity:1; 
stroke-linecap:round; stroke-linejoin:round;">
</g>
<g style="fill:#FFFFFF; fill-opacity:1.0; 
stroke:#FFFFFF; stroke-width:0; stroke-opacity:1; 
stroke-linecap:round; stroke-linejoin:round;">
<circle cx="22520.4" cy="30128" r="157.48" /> 
</g>
<g style="fill:#FFFFFF; fill-opacity:1.0; 
stroke:#FFFFFF; stroke-width:39.3701; stroke-opacity:1; 
stroke-linecap:round; stroke-linejoin:round;">
</g>
<g style="fill:#FFFFFF; fill-opacity:1.0; 
stroke:#FFFFFF; stroke-width:0; stroke-opacity:1; 
stroke-linecap:round; stroke-linejoin:round;">
<circle cx="22520.4" cy="29128" r="157.48" /> 
</g>
<g style="fill:#FFFFFF; fill-opacity:1.0; 
stroke:#FFFFFF; stroke-width:39.3701; stroke-opacity:1; 
stroke-linecap:round; stroke-linejoin:round;">
</g>
<g style="fill:#FFFFFF; fill-opacity:1.0; 
stroke:#FFFFFF; stroke-width:0; stroke-opacity:1; 
stroke-linecap:round; stroke-linejoin:round;">
<circle cx="22520.4" cy="28128" r="157.48" /> 
</g>
<g style="fill:#FFFFFF; fill-opacity:1.0; 
stroke:#FFFFFF; stroke-width:39.3701; stroke-opacity:1; 
stroke-linecap:round; stroke-linejoin:round;">
</g>
<g style="fill:#FFFFFF; fill-opacity:1.0; 
stroke:#FFFFFF; stroke-width:0; stroke-opacity:1; 
stroke-linecap:round; stroke-linejoin:round;">
<circle cx="22520.4" cy="27128" r="157.48" /> 
</g>
<g style="fill:#FFFFFF; fill-opacity:1.0; 
stroke:#FFFFFF; stroke-width:39.3701; stroke-opacity:1; 
stroke-linecap:round; stroke-linejoin:round;">
</g>
<g style="fill:#FFFFFF; fill-opacity:1.0; 
stroke:#FFFFFF; stroke-width:0; stroke-opacity:1; 
stroke-linecap:round; stroke-linejoin:round;">
<circle cx="22520.4" cy="26128" r="157.48" /> 
</g>
<g style="fill:#FFFFFF; fill-opacity:1.0; 
stroke:#FFFFFF; stroke-width:39.3701; stroke-opacity:1; 
stroke-linecap:round; stroke-linejoin:round;">
</g>
<g style="fill:#FFFFFF; fill-opacity:1.0; 
stroke:#FFFFFF; stroke-width:0; stroke-opacity:1; 
stroke-linecap:round; stroke-linejoin:round;">
<circle cx="22520.4" cy="25128" r="157.48" /> 
</g>
<g style="fill:#FFFFFF; fill-opacity:1.0; 
stroke:#FFFFFF; stroke-width:39.3701; stroke-opacity:1; 
stroke-linecap:round; stroke-linejoin:round;">
</g>
<g style="fill:#FFFFFF; fill-opacity:1.0; 
stroke:#FFFFFF; stroke-width:0; stroke-opacity:1; 
stroke-linecap:round; stroke-linejoin:round;">
<circle cx="22520.4" cy="24128" r="157.48" /> 
</g>
<g style="fill:#FFFFFF; fill-opacity:1.0; 
stroke:#FFFFFF; stroke-width:39.3701; stroke-opacity:1; 
stroke-linecap:round; stroke-linejoin:round;">
</g>
<g style="fill:#FFFFFF; fill-opacity:1.0; 
stroke:#FFFFFF; stroke-width:0; stroke-opacity:1; 
stroke-linecap:round; stroke-linejoin:round;">
<circle cx="22520.4" cy="23128" r="157.48" /> 
</g>
<g style="fill:#FFFFFF; fill-opacity:1.0; 
stroke:#FFFFFF; stroke-width:39.3701; stroke-opacity:1; 
stroke-linecap:round; stroke-linejoin:round;">
</g>
<g style="fill:#FFFFFF; fill-opacity:1.0; 
stroke:#FFFFFF; stroke-width:0; stroke-opacity:1; 
stroke-linecap:round; stroke-linejoin:round;">
<circle cx="22520.4" cy="22128" r="157.48" /> 
</g>
<g style="fill:#FFFFFF; fill-opacity:1.0; 
stroke:#FFFFFF; stroke-width:39.3701; stroke-opacity:1; 
stroke-linecap:round; stroke-linejoin:round;">
</g>
<g style="fill:#FFFFFF; fill-opacity:1.0; 
stroke:#FFFFFF; stroke-width:0; stroke-opacity:1; 
stroke-linecap:round; stroke-linejoin:round;">
<circle cx="22520.4" cy="21128" r="157.48" /> 
</g>
<g style="fill:#FFFFFF; fill-opacity:1.0; 
stroke:#FFFFFF; stroke-width:39.3701; stroke-opacity:1; 
stroke-linecap:round; stroke-linejoin:round;">
</g>
<g style="fill:#FFFFFF; fill-opacity:1.0; 
stroke:#FFFFFF; stroke-width:0; stroke-opacity:1; 
stroke-linecap:round; stroke-linejoin:round;">
<circle cx="22520.4" cy="20128" r="157.48" /> 
</g>
<g style="fill:#FFFFFF; fill-opacity:1.0; 
stroke:#FFFFFF; stroke-width:39.3701; stroke-opacity:1; 
stroke-linecap:round; stroke-linejoin:round;">
</g>
<g style="fill:#FFFFFF; fill-opacity:1.0; 
stroke:#FFFFFF; stroke-width:0; stroke-opacity:1; 
stroke-linecap:round; stroke-linejoin:round;">
<circle cx="22520.4" cy="19128" r="157.48" /> 
</g>
<g style="fill:#FFFFFF; fill-opacity:1.0; 
stroke:#FFFFFF; stroke-width:39.3701; stroke-opacity:1; 
stroke-linecap:round; stroke-linejoin:round;">
</g>
<g style="fill:#FFFFFF; fill-opacity:1.0; 
stroke:#FFFFFF; stroke-width:0; stroke-opacity:1; 
stroke-linecap:round; stroke-linejoin:round;">
<circle cx="22520.4" cy="18128" r="157.48" /> 
</g>
<g style="fill:#FFFFFF; fill-opacity:1.0; 
stroke:#FFFFFF; stroke-width:39.3701; stroke-opacity:1; 
stroke-linecap:round; stroke-linejoin:round;">
</g>
<g style="fill:#FFFFFF; fill-opacity:1.0; 
stroke:#FFFFFF; stroke-width:0; stroke-opacity:1; 
stroke-linecap:round; stroke-linejoin:round;">
<circle cx="28020.4" cy="27589" r="157.5" /> 
</g>
<g style="fill:#FFFFFF; fill-opacity:1.0; 
stroke:#FFFFFF; stroke-width:39.3701; stroke-opacity:1; 
stroke-linecap:round; stroke-linejoin:round;">
</g>
<g style="fill:#FFFFFF; fill-opacity:1.0; 
stroke:#FFFFFF; stroke-width:0; stroke-opacity:1; 
stroke-linecap:round; stroke-linejoin:round;">
<circle cx="28020.4" cy="25667" r="157.5" /> 
</g>
<g style="fill:#FFFFFF; fill-opacity:1.0; 
stroke:#FFFFFF; stroke-width:39.3701; stroke-opacity:1; 
stroke-linecap:round; stroke-linejoin:round;">
</g>
<g style="fill:#FFFFFF; fill-opacity:1.0; 
stroke:#FFFFFF; stroke-width:0; stroke-opacity:1; 
stroke-linecap:round; stroke-linejoin:round;">
<circle cx="35685.4" cy="10762" r="177" /> 
</g>
<g style="fill:#FFFFFF; fill-opacity:1.0; 
stroke:#FFFFFF; stroke-width:39.3701; stroke-opacity:1; 
stroke-linecap:round; stroke-linejoin:round;">
</g>
<g style="fill:#FFFFFF; fill-opacity:1.0; 
stroke:#FFFFFF; stroke-width:0; stroke-opacity:1; 
stroke-linecap:round; stroke-linejoin:round;">
<circle cx="35685.4" cy="12494" r="177" /> 
</g>
<g style="fill:#FFFFFF; fill-opacity:1.0; 
stroke:#FFFFFF; stroke-width:39.3701; stroke-opacity:1; 
stroke-linecap:round; stroke-linejoin:round;">
</g>
<g style="fill:#FFFFFF; fill-opacity:1.0; 
stroke:#FFFFFF; stroke-width:0; stroke-opacity:1; 
stroke-linecap:round; stroke-linejoin:round;">
<circle cx="30020.4" cy="5127.95" r="157.48" /> 
</g>
<g style="fill:#FFFFFF; fill-opacity:1.0; 
stroke:#FFFFFF; stroke-width:39.3701; stroke-opacity:1; 
stroke-linecap:round; stroke-linejoin:round;">
</g>
<g style="fill:#FFFFFF; fill-opacity:1.0; 
stroke:#FFFFFF; stroke-width:0; stroke-opacity:1; 
stroke-linecap:round; stroke-linejoin:round;">
<circle cx="30020.4" cy="6112.21" r="157.48" /> 
</g>
<g style="fill:#FFFFFF; fill-opacity:1.0; 
stroke:#FFFFFF; stroke-width:39.3701; stroke-opacity:1; 
stroke-linecap:round; stroke-linejoin:round;">
</g>
<g style="fill:#FFFFFF; fill-opacity:1.0; 
stroke:#FFFFFF; stroke-width:0; stroke-opacity:1; 
stroke-linecap:round; stroke-linejoin:round;">
<circle cx="11020.4" cy="9627.95" r="157.48" /> 
</g>
<g style="fill:#FFFFFF; fill-opacity:1.0; 
stroke:#FFFFFF; stroke-width:39.3701; stroke-opacity:1; 
stroke-linecap:round; stroke-linejoin:round;">
</g>
<g style="fill:#FFFFFF; fill-opacity:1.0; 
stroke:#FFFFFF; stroke-width:0; stroke-opacity:1; 
stroke-linecap:round; stroke-linejoin:round;">
<circle cx="11020.4" cy="10628" r="157.48" /> 
</g>
<g style="fill:#FFFFFF; fill-opacity:1.0; 
stroke:#FFFFFF; stroke-width:39.3701; stroke-opacity:1; 
stroke-linecap:round; stroke-linejoin:round;">
</g>
<g style="fill:#FFFFFF; fill-opacity:1.0; 
stroke:#FFFFFF; stroke-width:0; stroke-opacity:1; 
stroke-linecap:round; stroke-linejoin:round;">
<circle cx="11020.4" cy="11628" r="157.48" /> 
</g>
<g style="fill:#FFFFFF; fill-opacity:1.0; 
stroke:#FFFFFF; stroke-width:39.3701; stroke-opacity:1; 
stroke-linecap:round; stroke-linejoin:round;">
</g>
<g style="fill:#FFFFFF; fill-opacity:1.0; 
stroke:#FFFFFF; stroke-width:0; stroke-opacity:1; 
stroke-linecap:round; stroke-linejoin:round;">
<circle cx="11020.4" cy="12628" r="157.48" /> 
</g>
<g style="fill:#FFFFFF; fill-opacity:1.0; 
stroke:#FFFFFF; stroke-width:39.3701; stroke-opacity:1; 
stroke-linecap:round; stroke-linejoin:round;">
</g>
<g style="fill:#FFFFFF; fill-opacity:1.0; 
stroke:#FFFFFF; stroke-width:0; stroke-opacity:1; 
stroke-linecap:round; stroke-linejoin:round;">
<circle cx="11020.4" cy="13628" r="157.48" /> 
</g>
<g style="fill:#FFFFFF; fill-opacity:1.0; 
stroke:#FFFFFF; stroke-width:39.3701; stroke-opacity:1; 
stroke-linecap:round; stroke-linejoin:round;">
</g>
<g style="fill:#FFFFFF; fill-opacity:1.0; 
stroke:#FFFFFF; stroke-width:0; stroke-opacity:1; 
stroke-linecap:round; stroke-linejoin:round;">
<circle cx="11020.4" cy="14628" r="157.48" /> 
</g>
<g style="fill:#FFFFFF; fill-opacity:1.0; 
stroke:#FFFFFF; stroke-width:39.3701; stroke-opacity:1; 
stroke-linecap:round; stroke-linejoin:round;">
</g>
<g style="fill:#FFFFFF; fill-opacity:1.0; 
stroke:#FFFFFF; stroke-width:0; stroke-opacity:1; 
stroke-linecap:round; stroke-linejoin:round;">
<circle cx="11020.4" cy="15628" r="157.48" /> 
</g>
<g style="fill:#FFFFFF; fill-opacity:1.0; 
stroke:#FFFFFF; stroke-width:39.3701; stroke-opacity:1; 
stroke-linecap:round; stroke-linejoin:round;">
</g>
<g style="fill:#FFFFFF; fill-opacity:1.0; 
stroke:#FFFFFF; stroke-width:0; stroke-opacity:1; 
stroke-linecap:round; stroke-linejoin:round;">
<circle cx="11020.4" cy="16628" r="157.48" /> 
</g>
<g style="fill:#FFFFFF; fill-opacity:1.0; 
stroke:#FFFFFF; stroke-width:39.3701; stroke-opacity:1; 
stroke-linecap:round; stroke-linejoin:round;">
</g>
<g style="fill:#FFFFFF; fill-opacity:1.0; 
stroke:#FFFFFF; stroke-width:0; stroke-opacity:1; 
stroke-linecap:round; stroke-linejoin:round;">
<circle cx="11020.4" cy="17628" r="157.48" /> 
</g>
<g style="fill:#FFFFFF; fill-opacity:1.0; 
stroke:#FFFFFF; stroke-width:39.3701; stroke-opacity:1; 
stroke-linecap:round; stroke-linejoin:round;">
</g>
<g style="fill:#FFFFFF; fill-opacity:1.0; 
stroke:#FFFFFF; stroke-width:0; stroke-opacity:1; 
stroke-linecap:round; stroke-linejoin:round;">
<circle cx="11020.4" cy="18628" r="157.48" /> 
</g>
<g style="fill:#FFFFFF; fill-opacity:1.0; 
stroke:#FFFFFF; stroke-width:39.3701; stroke-opacity:1; 
stroke-linecap:round; stroke-linejoin:round;">
</g>
<g style="fill:#FFFFFF; fill-opacity:1.0; 
stroke:#FFFFFF; stroke-width:0; stroke-opacity:1; 
stroke-linecap:round; stroke-linejoin:round;">
<circle cx="11020.4" cy="19628" r="157.48" /> 
</g>
<g style="fill:#FFFFFF; fill-opacity:1.0; 
stroke:#FFFFFF; stroke-width:39.3701; stroke-opacity:1; 
stroke-linecap:round; stroke-linejoin:round;">
</g>
<g style="fill:#FFFFFF; fill-opacity:1.0; 
stroke:#FFFFFF; stroke-width:0; stroke-opacity:1; 
stroke-linecap:round; stroke-linejoin:round;">
<circle cx="11020.4" cy="20628" r="157.48" /> 
</g>
<g style="fill:#FFFFFF; fill-opacity:1.0; 
stroke:#FFFFFF; stroke-width:39.3701; stroke-opacity:1; 
stroke-linecap:round; stroke-linejoin:round;">
</g>
<g style="fill:#FFFFFF; fill-opacity:1.0; 
stroke:#FFFFFF; stroke-width:0; stroke-opacity:1; 
stroke-linecap:round; stroke-linejoin:round;">
<circle cx="11020.4" cy="21628" r="157.48" /> 
</g>
<g style="fill:#FFFFFF; fill-opacity:1.0; 
stroke:#FFFFFF; stroke-width:39.3701; stroke-opacity:1; 
stroke-linecap:round; stroke-linejoin:round;">
</g>
<g style="fill:#FFFFFF; fill-opacity:1.0; 
stroke:#FFFFFF; stroke-width:0; stroke-opacity:1; 
stroke-linecap:round; stroke-linejoin:round;">
<circle cx="11020.4" cy="22628" r="157.48" /> 
</g>
<g style="fill:#FFFFFF; fill-opacity:1.0; 
stroke:#FFFFFF; stroke-width:39.3701; stroke-opacity:1; 
stroke-linecap:round; stroke-linejoin:round;">
</g>
<g style="fill:#FFFFFF; fill-opacity:1.0; 
stroke:#FFFFFF; stroke-width:0; stroke-opacity:1; 
stroke-linecap:round; stroke-linejoin:round;">
<circle cx="11020.4" cy="23628" r="157.48" /> 
</g>
<g style="fill:#FFFFFF; fill-opacity:1.0; 
stroke:#FFFFFF; stroke-width:39.3701; stroke-opacity:1; 
stroke-linecap:round; stroke-linejoin:round;">
</g>
<g style="fill:#FFFFFF; fill-opacity:1.0; 
stroke:#FFFFFF; stroke-width:0; stroke-opacity:1; 
stroke-linecap:round; stroke-linejoin:round;">
<circle cx="11020.4" cy="24628" r="157.48" /> 
</g>
<g style="fill:#FFFFFF; fill-opacity:1.0; 
stroke:#FFFFFF; stroke-width:39.3701; stroke-opacity:1; 
stroke-linecap:round; stroke-linejoin:round;">
</g>
<g style="fill:#FFFFFF; fill-opacity:1.0; 
stroke:#FFFFFF; stroke-width:0; stroke-opacity:1; 
stroke-linecap:round; stroke-linejoin:round;">
<circle cx="11020.4" cy="25628" r="157.48" /> 
</g>
<g style="fill:#FFFFFF; fill-opacity:1.0; 
stroke:#FFFFFF; stroke-width:39.3701; stroke-opacity:1; 
stroke-linecap:round; stroke-linejoin:round;">
</g>
<g style="fill:#FFFFFF; fill-opacity:1.0; 
stroke:#FFFFFF; stroke-width:0; stroke-opacity:1; 
stroke-linecap:round; stroke-linejoin:round;">
<circle cx="11020.4" cy="26628" r="157.48" /> 
</g>
<g style="fill:#FFFFFF; fill-opacity:1.0; 
stroke:#FFFFFF; stroke-width:39.3701; stroke-opacity:1; 
stroke-linecap:round; stroke-linejoin:round;">
</g>
<g style="fill:#FFFFFF; fill-opacity:1.0; 
stroke:#FFFFFF; stroke-width:0; stroke-opacity:1; 
stroke-linecap:round; stroke-linejoin:round;">
<circle cx="11020.4" cy="27628" r="157.48" /> 
</g>
<g style="fill:#FFFFFF; fill-opacity:1.0; 
stroke:#FFFFFF; stroke-width:39.3701; stroke-opacity:1; 
stroke-linecap:round; stroke-linejoin:round;">
</g>
<g style="fill:#FFFFFF; fill-opacity:1.0; 
stroke:#FFFFFF; stroke-width:0; stroke-opacity:1; 
stroke-linecap:round; stroke-linejoin:round;">
<circle cx="11020.4" cy="28628" r="157.48" /> 
</g>
<g style="fill:#FFFFFF; fill-opacity:1.0; 
stroke:#FFFFFF; stroke-width:39.3701; stroke-opacity:1; 
stroke-linecap:round; stroke-linejoin:round;">
</g>
<g style="fill:#FFFFFF; fill-opacity:1.0; 
stroke:#FFFFFF; stroke-width:0; stroke-opacity:1; 
stroke-linecap:round; stroke-linejoin:round;">
<circle cx="5020.39" cy="28628" r="157.48" /> 
</g>
<g style="fill:#FFFFFF; fill-opacity:1.0; 
stroke:#FFFFFF; stroke-width:39.3701; stroke-opacity:1; 
stroke-linecap:round; stroke-linejoin:round;">
</g>
<g style="fill:#FFFFFF; fill-opacity:1.0; 
stroke:#FFFFFF; stroke-width:0; stroke-opacity:1; 
stroke-linecap:round; stroke-linejoin:round;">
<circle cx="5020.39" cy="27628" r="157.48" /> 
</g>
<g style="fill:#FFFFFF; fill-opacity:1.0; 
stroke:#FFFFFF; stroke-width:39.3701; stroke-opacity:1; 
stroke-linecap:round; stroke-linejoin:round;">
</g>
<g style="fill:#FFFFFF; fill-opacity:1.0; 
stroke:#FFFFFF; stroke-width:0; stroke-opacity:1; 
stroke-linecap:round; stroke-linejoin:round;">
<circle cx="5020.39" cy="26628" r="157.48" /> 
</g>
<g style="fill:#FFFFFF; fill-opacity:1.0; 
stroke:#FFFFFF; stroke-width:39.3701; stroke-opacity:1; 
stroke-linecap:round; stroke-linejoin:round;">
</g>
<g style="fill:#FFFFFF; fill-opacity:1.0; 
stroke:#FFFFFF; stroke-width:0; stroke-opacity:1; 
stroke-linecap:round; stroke-linejoin:round;">
<circle cx="5020.39" cy="25628" r="157.48" /> 
</g>
<g style="fill:#FFFFFF; fill-opacity:1.0; 
stroke:#FFFFFF; stroke-width:39.3701; stroke-opacity:1; 
stroke-linecap:round; stroke-linejoin:round;">
</g>
<g style="fill:#FFFFFF; fill-opacity:1.0; 
stroke:#FFFFFF; stroke-width:0; stroke-opacity:1; 
stroke-linecap:round; stroke-linejoin:round;">
<circle cx="5020.39" cy="24628" r="157.48" /> 
</g>
<g style="fill:#FFFFFF; fill-opacity:1.0; 
stroke:#FFFFFF; stroke-width:39.3701; stroke-opacity:1; 
stroke-linecap:round; stroke-linejoin:round;">
</g>
<g style="fill:#FFFFFF; fill-opacity:1.0; 
stroke:#FFFFFF; stroke-width:0; stroke-opacity:1; 
stroke-linecap:round; stroke-linejoin:round;">
<circle cx="5020.39" cy="23628" r="157.48" /> 
</g>
<g style="fill:#FFFFFF; fill-opacity:1.0; 
stroke:#FFFFFF; stroke-width:39.3701; stroke-opacity:1; 
stroke-linecap:round; stroke-linejoin:round;">
</g>
<g style="fill:#FFFFFF; fill-opacity:1.0; 
stroke:#FFFFFF; stroke-width:0; stroke-opacity:1; 
stroke-linecap:round; stroke-linejoin:round;">
<circle cx="5020.39" cy="22628" r="157.48" /> 
</g>
<g style="fill:#FFFFFF; fill-opacity:1.0; 
stroke:#FFFFFF; stroke-width:39.3701; stroke-opacity:1; 
stroke-linecap:round; stroke-linejoin:round;">
</g>
<g style="fill:#FFFFFF; fill-opacity:1.0; 
stroke:#FFFFFF; stroke-width:0; stroke-opacity:1; 
stroke-linecap:round; stroke-linejoin:round;">
<circle cx="5020.39" cy="21628" r="157.48" /> 
</g>
<g style="fill:#FFFFFF; fill-opacity:1.0; 
stroke:#FFFFFF; stroke-width:39.3701; stroke-opacity:1; 
stroke-linecap:round; stroke-linejoin:round;">
</g>
<g style="fill:#FFFFFF; fill-opacity:1.0; 
stroke:#FFFFFF; stroke-width:0; stroke-opacity:1; 
stroke-linecap:round; stroke-linejoin:round;">
<circle cx="5020.39" cy="20628" r="157.48" /> 
</g>
<g style="fill:#FFFFFF; fill-opacity:1.0; 
stroke:#FFFFFF; stroke-width:39.3701; stroke-opacity:1; 
stroke-linecap:round; stroke-linejoin:round;">
</g>
<g style="fill:#FFFFFF; fill-opacity:1.0; 
stroke:#FFFFFF; stroke-width:0; stroke-opacity:1; 
stroke-linecap:round; stroke-linejoin:round;">
<circle cx="5020.39" cy="19628" r="157.48" /> 
</g>
<g style="fill:#FFFFFF; fill-opacity:1.0; 
stroke:#FFFFFF; stroke-width:39.3701; stroke-opacity:1; 
stroke-linecap:round; stroke-linejoin:round;">
</g>
<g style="fill:#FFFFFF; fill-opacity:1.0; 
stroke:#FFFFFF; stroke-width:0; stroke-opacity:1; 
stroke-linecap:round; stroke-linejoin:round;">
<circle cx="5020.39" cy="18628" r="157.48" /> 
</g>
<g style="fill:#FFFFFF; fill-opacity:1.0; 
stroke:#FFFFFF; stroke-width:39.3701; stroke-opacity:1; 
stroke-linecap:round; stroke-linejoin:round;">
</g>
<g style="fill:#FFFFFF; fill-opacity:1.0; 
stroke:#FFFFFF; stroke-width:0; stroke-opacity:1; 
stroke-linecap:round; stroke-linejoin:round;">
<circle cx="5020.39" cy="17628" r="157.48" /> 
</g>
<g style="fill:#FFFFFF; fill-opacity:1.0; 
stroke:#FFFFFF; stroke-width:39.3701; stroke-opacity:1; 
stroke-linecap:round; stroke-linejoin:round;">
</g>
<g style="fill:#FFFFFF; fill-opacity:1.0; 
stroke:#FFFFFF; stroke-width:0; stroke-opacity:1; 
stroke-linecap:round; stroke-linejoin:round;">
<circle cx="5020.39" cy="16628" r="157.48" /> 
</g>
<g style="fill:#FFFFFF; fill-opacity:1.0; 
stroke:#FFFFFF; stroke-width:39.3701; stroke-opacity:1; 
stroke-linecap:round; stroke-linejoin:round;">
</g>
<g style="fill:#FFFFFF; fill-opacity:1.0; 
stroke:#FFFFFF; stroke-width:0; stroke-opacity:1; 
stroke-linecap:round; stroke-linejoin:round;">
<circle cx="5020.39" cy="15628" r="157.48" /> 
</g>
<g style="fill:#FFFFFF; fill-opacity:1.0; 
stroke:#FFFFFF; stroke-width:39.3701; stroke-opacity:1; 
stroke-linecap:round; stroke-linejoin:round;">
</g>
<g style="fill:#FFFFFF; fill-opacity:1.0; 
stroke:#FFFFFF; stroke-width:0; stroke-opacity:1; 
stroke-linecap:round; stroke-linejoin:round;">
<circle cx="5020.39" cy="14628" r="157.48" /> 
</g>
<g style="fill:#FFFFFF; fill-opacity:1.0; 
stroke:#FFFFFF; stroke-width:39.3701; stroke-opacity:1; 
stroke-linecap:round; stroke-linejoin:round;">
</g>
<g style="fill:#FFFFFF; fill-opacity:1.0; 
stroke:#FFFFFF; stroke-width:0; stroke-opacity:1; 
stroke-linecap:round; stroke-linejoin:round;">
<circle cx="5020.39" cy="13628" r="157.48" /> 
</g>
<g style="fill:#FFFFFF; fill-opacity:1.0; 
stroke:#FFFFFF; stroke-width:39.3701; stroke-opacity:1; 
stroke-linecap:round; stroke-linejoin:round;">
</g>
<g style="fill:#FFFFFF; fill-opacity:1.0; 
stroke:#FFFFFF; stroke-width:0; stroke-opacity:1; 
stroke-linecap:round; stroke-linejoin:round;">
<circle cx="5020.39" cy="12628" r="157.48" /> 
</g>
<g style="fill:#FFFFFF; fill-opacity:1.0; 
stroke:#FFFFFF; stroke-width:39.3701; stroke-opacity:1; 
stroke-linecap:round; stroke-linejoin:round;">
</g>
<g style="fill:#FFFFFF; fill-opacity:1.0; 
stroke:#FFFFFF; stroke-width:0; stroke-opacity:1; 
stroke-linecap:round; stroke-linejoin:round;">
<circle cx="5020.39" cy="11628" r="157.48" /> 
</g>
<g style="fill:#FFFFFF; fill-opacity:1.0; 
stroke:#FFFFFF; stroke-width:39.3701; stroke-opacity:1; 
stroke-linecap:round; stroke-linejoin:round;">
</g>
<g style="fill:#FFFFFF; fill-opacity:1.0; 
stroke:#FFFFFF; stroke-width:0; stroke-opacity:1; 
stroke-linecap:round; stroke-linejoin:round;">
<circle cx="5020.39" cy="10628" r="157.48" /> 
</g>
<g style="fill:#FFFFFF; fill-opacity:1.0; 
stroke:#FFFFFF; stroke-width:39.3701; stroke-opacity:1; 
stroke-linecap:round; stroke-linejoin:round;">
</g>
<g style="fill:#FFFFFF; fill-opacity:1.0; 
stroke:#FFFFFF; stroke-width:0; stroke-opacity:1; 
stroke-linecap:round; stroke-linejoin:round;">
<circle cx="5020.39" cy="9627.95" r="157.48" /> 
</g>
<g style="fill:#FFFFFF; fill-opacity:1.0; 
stroke:#FFFFFF; stroke-width:39.3701; stroke-opacity:1; 
stroke-linecap:round; stroke-linejoin:round;">
</g>
<g style="fill:#FFFFFF; fill-opacity:1.0; 
stroke:#FFFFFF; stroke-width:0; stroke-opacity:1; 
stroke-linecap:round; stroke-linejoin:round;">
<circle cx="32520.4" cy="18628" r="197" /> 
</g>
<g style="fill:#FFFFFF; fill-opacity:1.0; 
stroke:#FFFFFF; stroke-width:39.3701; stroke-opacity:1; 
stroke-linecap:round; stroke-linejoin:round;">
</g>
<g style="fill:#FFFFFF; fill-opacity:1.0; 
stroke:#FFFFFF; stroke-width:0; stroke-opacity:1; 
stroke-linecap:round; stroke-linejoin:round;">
<circle cx="32520.4" cy="15628" r="197" /> 
</g>
<g style="fill:#FFFFFF; fill-opacity:1.0; 
stroke:#FFFFFF; stroke-width:39.3701; stroke-opacity:1; 
stroke-linecap:round; stroke-linejoin:round;">
</g>
<g style="fill:#FFFFFF; fill-opacity:1.0; 
stroke:#FFFFFF; stroke-width:0; stroke-opacity:1; 
stroke-linecap:round; stroke-linejoin:round;">
<circle cx="34020.4" cy="18628" r="197" /> 
</g>
<g style="fill:#FFFFFF; fill-opacity:1.0; 
stroke:#FFFFFF; stroke-width:39.3701; stroke-opacity:1; 
stroke-linecap:round; stroke-linejoin:round;">
</g>
<g style="fill:#FFFFFF; fill-opacity:1.0; 
stroke:#FFFFFF; stroke-width:0; stroke-opacity:1; 
stroke-linecap:round; stroke-linejoin:round;">
<circle cx="34020.4" cy="15628" r="197" /> 
</g>
<g style="fill:#FFFFFF; fill-opacity:1.0; 
stroke:#FFFFFF; stroke-width:39.3701; stroke-opacity:1; 
stroke-linecap:round; stroke-linejoin:round;">
</g>
<g style="fill:#FFFFFF; fill-opacity:1.0; 
stroke:#FFFFFF; stroke-width:0; stroke-opacity:1; 
stroke-linecap:round; stroke-linejoin:round;">
<circle cx="26520.4" cy="13628" r="197" /> 
</g>
<g style="fill:#FFFFFF; fill-opacity:1.0; 
stroke:#FFFFFF; stroke-width:39.3701; stroke-opacity:1; 
stroke-linecap:round; stroke-linejoin:round;">
</g>
<g style="fill:#FFFFFF; fill-opacity:1.0; 
stroke:#FFFFFF; stroke-width:0; stroke-opacity:1; 
stroke-linecap:round; stroke-linejoin:round;">
<circle cx="29520.4" cy="13628" r="197" /> 
</g>
<g style="fill:#FFFFFF; fill-opacity:1.0; 
stroke:#FFFFFF; stroke-width:39.3701; stroke-opacity:1; 
stroke-linecap:round; stroke-linejoin:round;">
</g>
<g style="fill:#FFFFFF; fill-opacity:1.0; 
stroke:#FFFFFF; stroke-width:0; stroke-opacity:1; 
stroke-linecap:round; stroke-linejoin:round;">
<circle cx="35520.4" cy="17128" r="250" /> 
</g>
<g style="fill:#FFFFFF; fill-opacity:1.0; 
stroke:#FFFFFF; stroke-width:39.3701; stroke-opacity:1; 
stroke-linecap:round; stroke-linejoin:round;">
</g>
<g style="fill:#FFFFFF; fill-opacity:1.0; 
stroke:#FFFFFF; stroke-width:0; stroke-opacity:1; 
stroke-linecap:round; stroke-linejoin:round;">
<circle cx="35520.4" cy="15628" r="197" /> 
</g>
<g style="fill:#FFFFFF; fill-opacity:1.0; 
stroke:#FFFFFF; stroke-width:39.3701; stroke-opacity:1; 
stroke-linecap:round; stroke-linejoin:round;">
</g>
<g style="fill:#FFFFFF; fill-opacity:1.0; 
stroke:#FFFFFF; stroke-width:0; stroke-opacity:1; 
stroke-linecap:round; stroke-linejoin:round;">
<circle cx="31020.4" cy="17128" r="250" /> 
</g>
<g style="fill:#FFFFFF; fill-opacity:1.0; 
stroke:#FFFFFF; stroke-width:39.3701; stroke-opacity:1; 
stroke-linecap:round; stroke-linejoin:round;">
</g>
<g style="fill:#FFFFFF; fill-opacity:1.0; 
stroke:#FFFFFF; stroke-width:0; stroke-opacity:1; 
stroke-linecap:round; stroke-linejoin:round;">
<circle cx="31020.4" cy="15628" r="197" /> 
</g>
<g style="fill:#FFFFFF; fill-opacity:1.0; 
stroke:#FFFFFF; stroke-width:39.3701; stroke-opacity:1; 
stroke-linecap:round; stroke-linejoin:round;">
</g>
<g style="fill:#FFFFFF; fill-opacity:1.0; 
stroke:#FFFFFF; stroke-width:0; stroke-opacity:1; 
stroke-linecap:round; stroke-linejoin:round;">
<circle cx="1520.39" cy="32128" r="600" /> 
</g>
<g style="fill:#FFFFFF; fill-opacity:1.0; 
stroke:#FFFFFF; stroke-width:39.3701; stroke-opacity:1; 
stroke-linecap:round; stroke-linejoin:round;">
</g>
<g style="fill:#FFFFFF; fill-opacity:1.0; 
stroke:#FFFFFF; stroke-width:0; stroke-opacity:1; 
stroke-linecap:round; stroke-linejoin:round;">
<circle cx="36520.4" cy="32128" r="600" /> 
</g>
<g style="fill:#FFFFFF; fill-opacity:1.0; 
stroke:#FFFFFF; stroke-width:39.3701; stroke-opacity:1; 
stroke-linecap:round; stroke-linejoin:round;">
</g>
<g style="fill:#FFFFFF; fill-opacity:1.0; 
stroke:#FFFFFF; stroke-width:0; stroke-opacity:1; 
stroke-linecap:round; stroke-linejoin:round;">
<circle cx="36520.4" cy="5127.95" r="600" /> 
</g>
<g style="fill:#FFFFFF; fill-opacity:1.0; 
stroke:#FFFFFF; stroke-width:39.3701; stroke-opacity:1; 
stroke-linecap:round; stroke-linejoin:round;">
</g>
<g style="fill:#FFFFFF; fill-opacity:1.0; 
stroke:#FFFFFF; stroke-width:0; stroke-opacity:1; 
stroke-linecap:round; stroke-linejoin:round;">
<circle cx="1520.39" cy="5127.95" r="600" /> 
</g>
<g style="fill:#FFFFFF; fill-opacity:1.0; 
stroke:#FFFFFF; stroke-width:39.3701; stroke-opacity:1; 
stroke-linecap:round; stroke-linejoin:round;">
</g>
<g style="fill:#000000; fill-opacity:1.0; 
stroke:#000000; stroke-width:39.3701; stroke-opacity:1; 
stroke-linecap:round; stroke-linejoin:round;">
</g> 
</svg>
