<?xml version="1.0" standalone="no"?>
 <!DOCTYPE svg PUBLIC "-//W3C//DTD SVG 1.1//EN" 
 "http://www.w3.org/Graphics/SVG/1.1/DTD/svg11.dtd"> 
<svg xmlns="http://www.w3.org/2000/svg" version="1.1" 
    width="11.9812cm" height="8.55218cm" viewBox="0 0 47170 33670 ">
<title>SVG Picture created as AVR-ZIF-Prog-F.SilkS.svg date 2016/08/05 14:10:30 </title>
  <desc>Picture generated by PCBNEW </desc>
<g style="fill:#000000; fill-opacity:1;stroke:#000000; stroke-opacity:1;
stroke-linecap:round; stroke-linejoin:round; "
 transform="translate(0 0) scale(1 1)">
</g>
<g style="fill:#000000; fill-opacity:0.0; 
stroke:#000000; stroke-width:-0.000393701; stroke-opacity:1; 
stroke-linecap:round; stroke-linejoin:round;">
</g>
<g style="fill:#000000; fill-opacity:0.0; 
stroke:#000000; stroke-width:118.11; stroke-opacity:1; 
stroke-linecap:round; stroke-linejoin:round;">
<path d="M36765 8054
L36765 8532
L36737 8588
L36709 8616
L36653 8645
L36540 8645
L36484 8616
L36456 8588
L36428 8532
L36428 8054
" />
<path d="M36175 8616
L36090 8645
L35950 8645
L35893 8616
L35865 8588
L35837 8532
L35837 8476
L35865 8420
L35893 8392
L35950 8363
L36062 8335
L36118 8307
L36146 8279
L36175 8223
L36175 8167
L36146 8110
L36118 8082
L36062 8054
L35921 8054
L35837 8082
" />
<path d="M35387 8335
L35303 8363
L35275 8392
L35247 8448
L35247 8532
L35275 8588
L35303 8616
L35359 8645
L35584 8645
L35584 8054
L35387 8054
L35331 8082
L35303 8110
L35275 8167
L35275 8223
L35303 8279
L35331 8307
L35387 8335
L35584 8335
" />
<path d="M15559 27682
L15531 27710
L15503 27794
L15503 27851
L15531 27935
L15587 27991
L15643 28019
L15756 28048
L15840 28048
L15953 28019
L16009 27991
L16065 27935
L16093 27851
L16093 27794
L16065 27710
L16037 27682
" />
<path d="M15503 27429
L15896 27429
" />
<path d="M15784 27429
L15840 27401
L15868 27373
L15896 27316
L15896 27260
" />
<path d="M15896 27120
L15503 26979
" />
<path d="M15896 26838
L15503 26979
L15362 27035
L15334 27063
L15306 27120
" />
<path d="M15531 26642
L15503 26585
L15503 26473
L15531 26417
L15587 26388
L15615 26388
L15671 26417
L15700 26473
L15700 26557
L15728 26613
L15784 26642
L15812 26642
L15868 26613
L15896 26557
L15896 26473
L15868 26417
" />
<path d="M15896 26220
L15896 25995
" />
<path d="M16093 26135
L15587 26135
L15531 26107
L15503 26051
L15503 25995
" />
<path d="M15503 25545
L15812 25545
L15868 25573
L15896 25629
L15896 25742
L15868 25798
" />
<path d="M15531 25545
L15503 25601
L15503 25742
L15531 25798
L15587 25826
L15643 25826
L15700 25798
L15728 25742
L15728 25601
L15756 25545
" />
<path d="M15503 25179
L15531 25235
L15587 25264
L16093 25264
" />
<path d="M31831 12074
L31269 12074
" />
<path d="M31944 12412
L31550 11231
L31156 12412
" />
<path d="M30931 11231
L30538 12412
L30144 11231
" />
<path d="M29075 12412
L29469 11849
" />
<path d="M29750 12412
L29750 11231
L29300 11231
L29188 11287
L29132 11343
L29075 11456
L29075 11624
L29132 11737
L29188 11793
L29300 11849
L29750 11849
" />
<path d="M28569 11962
L27669 11962
" />
<path d="M27219 11231
L26432 11231
L27219 12412
L26432 12412
" />
<path d="M25982 12412
L25982 11231
" />
<path d="M25026 11793
L25420 11793
" />
<path d="M25420 12412
L25420 11231
L24857 11231
" />
<path d="M24407 11962
L23507 11962
" />
<path d="M22945 12412
L22945 11231
L22495 11231
L22382 11287
L22326 11343
L22270 11456
L22270 11624
L22326 11737
L22382 11793
L22495 11849
L22945 11849
" />
<path d="M21764 12412
L21764 11624
" />
<path d="M21764 11849
L21707 11737
L21651 11681
L21539 11624
L21426 11624
" />
<path d="M20864 12412
L20976 12356
L21033 12299
L21089 12187
L21089 11849
L21033 11737
L20976 11681
L20864 11624
L20695 11624
L20583 11681
L20526 11737
L20470 11849
L20470 12187
L20526 12299
L20583 12356
L20695 12412
L20864 12412
" />
<path d="M19458 11624
L19458 12580
L19514 12693
L19570 12749
L19683 12805
L19851 12805
L19964 12749
" />
<path d="M19458 12356
L19570 12412
L19795 12412
L19908 12356
L19964 12299
L20020 12187
L20020 11849
L19964 11737
L19908 11681
L19795 11624
L19570 11624
L19458 11681
" />
<path d="M18895 12412
L18895 11624
" />
<path d="M18895 11849
L18839 11737
L18783 11681
L18670 11624
L18558 11624
" />
<path d="M17658 12412
L17658 11793
L17714 11681
L17827 11624
L18052 11624
L18164 11681
" />
<path d="M17658 12356
L17770 12412
L18052 12412
L18164 12356
L18220 12243
L18220 12131
L18164 12018
L18052 11962
L17770 11962
L17658 11906
" />
<path d="M17096 12412
L17096 11624
" />
<path d="M17096 11737
L17039 11681
L16927 11624
L16758 11624
L16646 11681
L16589 11793
L16589 12412
" />
<path d="M16589 11793
L16533 11681
L16421 11624
L16252 11624
L16139 11681
L16083 11793
L16083 12412
" />
<path d="M15521 12412
L15521 11624
" />
<path d="M15521 11737
L15464 11681
L15352 11624
L15183 11624
L15071 11681
L15015 11793
L15015 12412
" />
<path d="M15015 11793
L14958 11681
L14846 11624
L14677 11624
L14565 11681
L14508 11793
L14508 12412
" />
<path d="M13496 12356
L13608 12412
L13833 12412
L13946 12356
L14002 12243
L14002 11793
L13946 11681
L13833 11624
L13608 11624
L13496 11681
L13440 11793
L13440 11906
L14002 12018
" />
<path d="M12934 12412
L12934 11624
" />
<path d="M12934 11849
L12877 11737
L12821 11681
L12709 11624
L12596 11624
" />
<path d="M18096 9795
L18096 9204
" />
<path d="M17843 9766
L17759 9795
L17618 9795
L17562 9766
L17534 9738
L17506 9682
L17506 9626
L17534 9570
L17562 9542
L17618 9513
L17731 9485
L17787 9457
L17815 9429
L17843 9373
L17843 9317
L17815 9260
L17787 9232
L17731 9204
L17590 9204
L17506 9232
" />
<path d="M17253 9795
L17253 9204
L17028 9204
L16972 9232
L16943 9260
L16915 9317
L16915 9401
L16943 9457
L16972 9485
L17028 9513
L17253 9513
" />
</g>
<g style="fill:#000000; fill-opacity:0.0; 
stroke:#000000; stroke-width:78.7402; stroke-opacity:1; 
stroke-linecap:round; stroke-linejoin:round;">
<path d="M27723 9537
L27667 9556
L27573 9556
L27535 9537
L27517 9518
L27498 9481
L27498 9443
L27517 9406
L27535 9387
L27573 9368
L27648 9349
L27685 9331
L27704 9312
L27723 9274
L27723 9237
L27704 9199
L27685 9181
L27648 9162
L27554 9162
L27498 9181
" />
<path d="M27142 9556
L27329 9556
L27329 9162
" />
<path d="M26936 9162
L26861 9162
L26823 9181
L26786 9218
L26767 9293
L26767 9424
L26786 9499
L26823 9537
L26861 9556
L26936 9556
L26973 9537
L27011 9499
L27029 9424
L27029 9293
L27011 9218
L26973 9181
L26936 9162
" />
<path d="M26636 9162
L26542 9556
L26467 9274
L26392 9556
L26298 9162
" />
<path d="M16473 17056
L16473 16662
L16323 16662
L16285 16681
L16267 16699
L16248 16737
L16248 16793
L16267 16831
L16285 16849
L16323 16868
L16473 16868
" />
<path d="M15854 17056
L15985 16868
" />
<path d="M16079 17056
L16079 16662
L15929 16662
L15892 16681
L15873 16699
L15854 16737
L15854 16793
L15873 16831
L15892 16849
L15929 16868
L16079 16868
" />
<path d="M15611 16662
L15536 16662
L15498 16681
L15461 16718
L15442 16793
L15442 16924
L15461 16999
L15498 17037
L15536 17056
L15611 17056
L15648 17037
L15686 16999
L15704 16924
L15704 16793
L15686 16718
L15648 16681
L15611 16662
" />
<path d="M15067 16681
L15104 16662
L15161 16662
L15217 16681
L15254 16718
L15273 16756
L15292 16831
L15292 16887
L15273 16962
L15254 16999
L15217 17037
L15161 17056
L15123 17056
L15067 17037
L15048 17018
L15048 16887
L15123 16887
" />
<path d="M15820 19181
L15857 19162
L15914 19162
L15970 19181
L16007 19218
L16026 19256
L16045 19331
L16045 19387
L16026 19462
L16007 19499
L15970 19537
L15914 19556
L15876 19556
L15820 19537
L15801 19518
L15801 19387
L15876 19387
" />
<path d="M15632 19556
L15632 19162
L15407 19556
L15407 19162
" />
<path d="M15220 19556
L15220 19162
L15126 19162
L15070 19181
L15032 19218
L15014 19256
L14995 19331
L14995 19387
L15014 19462
L15032 19499
L15070 19537
L15126 19556
L15220 19556
" />
<path d="M3810 25193
L3623 25193
" />
<path d="M3848 25306
L3717 24912
L3585 25306
" />
<path d="M3510 24912
L3285 24912
" />
<path d="M3398 25306
L3398 24912
" />
<path d="M3154 25306
L3154 25043
" />
<path d="M3154 24912
L3173 24931
L3154 24949
L3135 24931
L3154 24912
L3154 24949
" />
<path d="M2967 25043
L2967 25306
" />
<path d="M2967 25081
L2948 25062
L2911 25043
L2854 25043
L2817 25062
L2798 25099
L2798 25306
" />
<path d="M2648 25043
L2554 25306
" />
<path d="M2461 25043
L2554 25306
L2592 25399
L2611 25418
L2648 25437
" />
<path d="M2254 25081
L2292 25062
L2311 25043
L2329 25006
L2329 24987
L2311 24949
L2292 24931
L2254 24912
L2179 24912
L2142 24931
L2123 24949
L2104 24987
L2104 25006
L2123 25043
L2142 25062
L2179 25081
L2254 25081
L2292 25099
L2311 25118
L2329 25156
L2329 25231
L2311 25268
L2292 25287
L2254 25306
L2179 25306
L2142 25287
L2123 25268
L2104 25231
L2104 25156
L2123 25118
L2142 25099
L2179 25081
" />
<path d="M1748 24912
L1936 24912
L1954 25099
L1936 25081
L1898 25062
L1804 25062
L1767 25081
L1748 25099
L1729 25137
L1729 25231
L1748 25268
L1767 25287
L1804 25306
L1898 25306
L1936 25287
L1954 25268
" />
<path d="M3770 25627
L3020 25627
" />
<path d="M3710 14193
L3523 14193
" />
<path d="M3748 14306
L3617 13912
L3485 14306
" />
<path d="M3410 13912
L3185 13912
" />
<path d="M3298 14306
L3298 13912
" />
<path d="M3110 13912
L2885 13912
" />
<path d="M2998 14306
L2998 13912
" />
<path d="M2754 14306
L2754 14043
" />
<path d="M2754 13912
L2773 13931
L2754 13949
L2735 13931
L2754 13912
L2754 13949
" />
<path d="M2567 14043
L2567 14306
" />
<path d="M2567 14081
L2548 14062
L2511 14043
L2454 14043
L2417 14062
L2398 14099
L2398 14306
" />
<path d="M2248 14043
L2154 14306
" />
<path d="M2061 14043
L2154 14306
L2192 14399
L2211 14418
L2248 14437
" />
<path d="M1929 13949
L1911 13931
L1873 13912
L1779 13912
L1742 13931
L1723 13949
L1704 13987
L1704 14024
L1723 14081
L1948 14306
L1704 14306
" />
<path d="M1367 13912
L1442 13912
L1479 13931
L1498 13949
L1536 14006
L1554 14081
L1554 14231
L1536 14268
L1517 14287
L1479 14306
L1404 14306
L1367 14287
L1348 14268
L1329 14231
L1329 14137
L1348 14099
L1367 14081
L1404 14062
L1479 14062
L1517 14081
L1536 14099
L1554 14137
" />
<path d="M3770 14627
L3020 14627
" />
<path d="M3701 12193
L3514 12193
" />
<path d="M3738 12306
L3607 11912
L3476 12306
" />
<path d="M3401 11912
L3176 11912
" />
<path d="M3289 12306
L3289 11912
" />
<path d="M3045 12306
L3045 11912
L2914 12193
L2782 11912
L2782 12306
" />
<path d="M2445 12287
L2482 12306
L2557 12306
L2595 12287
L2614 12249
L2614 12099
L2595 12062
L2557 12043
L2482 12043
L2445 12062
L2426 12099
L2426 12137
L2614 12174
" />
<path d="M2089 12043
L2089 12362
L2107 12399
L2126 12418
L2164 12437
L2220 12437
L2257 12418
" />
<path d="M2089 12287
L2126 12306
L2201 12306
L2239 12287
L2257 12268
L2276 12231
L2276 12118
L2257 12081
L2239 12062
L2201 12043
L2126 12043
L2089 12062
" />
<path d="M1732 12306
L1732 12099
L1751 12062
L1789 12043
L1864 12043
L1901 12062
" />
<path d="M1732 12287
L1770 12306
L1864 12306
L1901 12287
L1920 12249
L1920 12212
L1901 12174
L1864 12156
L1770 12156
L1732 12137
" />
<path d="M1489 12081
L1526 12062
L1545 12043
L1564 12006
L1564 11987
L1545 11949
L1526 11931
L1489 11912
L1414 11912
L1376 11931
L1358 11949
L1339 11987
L1339 12006
L1358 12043
L1376 12062
L1414 12081
L1489 12081
L1526 12099
L1545 12118
L1564 12156
L1564 12231
L1545 12268
L1526 12287
L1489 12306
L1414 12306
L1376 12287
L1358 12268
L1339 12231
L1339 12156
L1358 12118
L1376 12099
L1414 12081
" />
<path d="M3770 12627
L3020 12627
" />
<path d="M3644 10193
L3456 10193
" />
<path d="M3681 10306
L3550 9912
L3419 10306
" />
<path d="M3344 9912
L3119 9912
" />
<path d="M3231 10306
L3231 9912
" />
<path d="M3044 9912
L2819 9912
" />
<path d="M2931 10306
L2931 9912
" />
<path d="M2688 10306
L2688 10043
" />
<path d="M2688 9912
L2706 9931
L2688 9949
L2669 9931
L2688 9912
L2688 9949
" />
<path d="M2500 10043
L2500 10306
" />
<path d="M2500 10081
L2481 10062
L2444 10043
L2388 10043
L2350 10062
L2331 10099
L2331 10306
" />
<path d="M2181 10043
L2088 10306
" />
<path d="M1994 10043
L2088 10306
L2125 10399
L2144 10418
L2181 10437
" />
<path d="M1863 9949
L1844 9931
L1806 9912
L1713 9912
L1675 9931
L1656 9949
L1638 9987
L1638 10024
L1656 10081
L1881 10306
L1638 10306
" />
<path d="M1506 9912
L1263 9912
L1394 10062
L1338 10062
L1300 10081
L1282 10099
L1263 10137
L1263 10231
L1282 10268
L1300 10287
L1338 10306
L1450 10306
L1488 10287
L1506 10268
" />
<path d="M888 10306
L1113 10306
" />
<path d="M1000 10306
L1000 9912
L1038 9968
L1075 10006
L1113 10024
" />
<path d="M757 9912
L513 9912
L644 10062
L588 10062
L550 10081
L532 10099
L513 10137
L513 10231
L532 10268
L550 10287
L588 10306
L700 10306
L738 10287
L757 10268
" />
<path d="M3770 10627
L3020 10627
" />
<path d="M3638 9193
L3451 9193
" />
<path d="M3676 9306
L3545 8912
L3414 9306
" />
<path d="M3339 8912
L3114 8912
" />
<path d="M3226 9306
L3226 8912
" />
<path d="M2982 9306
L2982 8912
L2851 9193
L2720 8912
L2720 9306
" />
<path d="M2382 9287
L2420 9306
L2495 9306
L2532 9287
L2551 9249
L2551 9099
L2532 9062
L2495 9043
L2420 9043
L2382 9062
L2364 9099
L2364 9137
L2551 9174
" />
<path d="M2026 9043
L2026 9362
L2045 9399
L2064 9418
L2101 9437
L2157 9437
L2195 9418
" />
<path d="M2026 9287
L2064 9306
L2139 9306
L2176 9287
L2195 9268
L2214 9231
L2214 9118
L2195 9081
L2176 9062
L2139 9043
L2064 9043
L2026 9062
" />
<path d="M1670 9306
L1670 9099
L1689 9062
L1726 9043
L1801 9043
L1839 9062
" />
<path d="M1670 9287
L1707 9306
L1801 9306
L1839 9287
L1857 9249
L1857 9212
L1839 9174
L1801 9156
L1707 9156
L1670 9137
" />
<path d="M1276 9306
L1501 9306
" />
<path d="M1389 9306
L1389 8912
L1426 8968
L1464 9006
L1501 9024
" />
<path d="M939 8912
L1014 8912
L1051 8931
L1070 8949
L1108 9006
L1126 9081
L1126 9231
L1108 9268
L1089 9287
L1051 9306
L976 9306
L939 9287
L920 9268
L901 9231
L901 9137
L920 9099
L939 9081
L976 9062
L1051 9062
L1089 9081
L1108 9099
L1126 9137
" />
<path d="M3770 9627
L3020 9627
" />
</g>
<g style="fill:#000000; fill-opacity:0.0; 
stroke:#000000; stroke-width:59.0551; stroke-opacity:1; 
stroke-linecap:round; stroke-linejoin:round;">
<path d="M38020 3627
L38020 33627
" />
<path d="M20 33627
L38020 33627
" />
<path d="M20 3627
L20 33627
" />
<path d="M38020 3627
L20 3627
" />
<path d="M14310 24556
L14310 24162
L14161 24162
L14123 24181
L14104 24199
L14086 24237
L14086 24293
L14104 24331
L14123 24349
L14161 24368
L14310 24368
" />
<path d="M13748 24162
L13823 24162
L13861 24181
L13879 24199
L13917 24256
L13936 24331
L13936 24481
L13917 24518
L13898 24537
L13861 24556
L13786 24556
L13748 24537
L13729 24518
L13711 24481
L13711 24387
L13729 24349
L13748 24331
L13786 24312
L13861 24312
L13898 24331
L13917 24349
L13936 24387
" />
<path d="M32651 9199
L32782 9199
" />
<path d="M32782 9406
L32782 9012
L32595 9012
" />
<path d="M32239 9406
L32464 9406
" />
<path d="M32351 9406
L32351 9012
L32389 9068
L32426 9106
L32464 9124
" />
<path d="M15810 5406
L15810 5012
L15661 5012
L15623 5031
L15604 5049
L15586 5087
L15586 5143
L15604 5181
L15623 5199
L15661 5218
L15810 5218
" />
<path d="M15248 5143
L15248 5406
" />
<path d="M15342 4993
L15436 5274
L15192 5274
" />
<path d="M14310 15298
L14310 14904
L14161 14904
L14123 14923
L14104 14941
L14086 14979
L14086 15035
L14104 15073
L14123 15091
L14161 15110
L14310 15110
" />
<path d="M13729 14904
L13917 14904
L13936 15091
L13917 15073
L13879 15054
L13786 15054
L13748 15073
L13729 15091
L13711 15129
L13711 15223
L13729 15260
L13748 15279
L13786 15298
L13879 15298
L13917 15279
L13936 15260
" />
<path d="M14592 16085
L14723 15898
" />
<path d="M14817 16085
L14817 15691
L14667 15691
L14629 15710
L14610 15729
L14592 15766
L14592 15823
L14610 15860
L14629 15879
L14667 15898
L14817 15898
" />
<path d="M14423 15879
L14292 15879
" />
<path d="M14235 16085
L14423 16085
L14423 15691
L14235 15691
" />
<path d="M14086 16066
L14029 16085
L13936 16085
L13898 16066
L13879 16048
L13861 16010
L13861 15973
L13879 15935
L13898 15916
L13936 15898
L14011 15879
L14048 15860
L14067 15841
L14086 15804
L14086 15766
L14067 15729
L14048 15710
L14011 15691
L13917 15691
L13861 15710
" />
<path d="M13692 15879
L13561 15879
" />
<path d="M13504 16085
L13692 16085
L13692 15691
L13504 15691
" />
<path d="M13392 15691
L13167 15691
" />
<path d="M13279 16085
L13279 15691
" />
<path d="M27310 10313
L27310 9920
L27161 9920
L27123 9938
L27104 9957
L27086 9995
L27086 10051
L27104 10088
L27123 10107
L27161 10126
L27310 10126
" />
<path d="M26936 9957
L26917 9938
L26879 9920
L26786 9920
L26748 9938
L26729 9957
L26711 9995
L26711 10032
L26729 10088
L26954 10313
L26711 10313
" />
<path d="M22637 7666
L23031 7666
L23031 7572
L23012 7516
L22975 7479
L22937 7460
L22862 7441
L22806 7441
L22731 7460
L22693 7479
L22656 7516
L22637 7572
L22637 7666
" />
<path d="M22900 7104
L22637 7104
" />
<path d="M23050 7197
L22768 7291
L22768 7047
" />
<path d="M23157 8896
L23550 8896
" />
<path d="M23157 8671
L23382 8840
" />
<path d="M23550 8671
L23325 8896
" />
<path d="M20137 7666
L20531 7666
L20531 7572
L20512 7516
L20475 7479
L20437 7460
L20362 7441
L20306 7441
L20231 7460
L20193 7479
L20156 7516
L20137 7572
L20137 7666
" />
<path d="M20531 7310
L20531 7066
L20381 7197
L20381 7141
L20362 7104
L20343 7085
L20306 7066
L20212 7066
L20175 7085
L20156 7104
L20137 7141
L20137 7254
L20156 7291
L20175 7310
" />
<path d="M20657 8896
L21050 8896
" />
<path d="M20657 8671
L20882 8840
" />
<path d="M21050 8671
L20825 8896
" />
<path d="M24654 17806
L24654 17412
" />
<path d="M24242 17768
L24261 17787
L24317 17806
L24354 17806
L24411 17787
L24448 17749
L24467 17712
L24485 17637
L24485 17581
L24467 17506
L24448 17468
L24411 17431
L24354 17412
L24317 17412
L24261 17431
L24242 17449
" />
<path d="M23867 17806
L24092 17806
" />
<path d="M23979 17806
L23979 17412
L24017 17468
L24054 17506
L24092 17524
" />
<path d="M29529 26815
L29342 26815
" />
<path d="M29735 26946
L29529 26815
L29735 26684
" />
<path d="M29342 26346
L29342 26571
" />
<path d="M29342 26459
L29735 26459
L29679 26496
L29642 26534
L29623 26571
" />
<path d="M37560 14556
L37560 14162
L37411 14162
L37373 14181
L37354 14199
L37336 14237
L37336 14293
L37354 14331
L37373 14349
L37411 14368
L37560 14368
" />
<path d="M36961 14556
L37186 14556
" />
<path d="M37073 14556
L37073 14162
L37111 14218
L37148 14256
L37186 14274
" />
<path d="M28383 5685
L28364 5704
L28346 5760
L28346 5798
L28364 5854
L28402 5891
L28439 5910
L28514 5929
L28571 5929
L28646 5910
L28683 5891
L28721 5854
L28739 5798
L28739 5760
L28721 5704
L28702 5685
" />
<path d="M28739 5554
L28739 5310
L28589 5441
L28589 5385
L28571 5348
L28552 5329
L28514 5310
L28421 5310
L28383 5329
L28364 5348
L28346 5385
L28346 5498
L28364 5535
L28383 5554
" />
<path d="M10310 6806
L10310 6412
L10161 6412
L10123 6431
L10104 6449
L10086 6487
L10086 6543
L10104 6581
L10123 6599
L10161 6618
L10310 6618
" />
<path d="M9954 6412
L9711 6412
L9842 6562
L9786 6562
L9748 6581
L9729 6599
L9711 6637
L9711 6731
L9729 6768
L9748 6787
L9786 6806
L9898 6806
L9936 6787
L9954 6768
" />
<path d="M32586 19806
L32717 19618
" />
<path d="M32810 19806
L32810 19412
L32661 19412
L32623 19431
L32604 19449
L32586 19487
L32586 19543
L32604 19581
L32623 19599
L32661 19618
L32810 19618
" />
<path d="M32248 19543
L32248 19806
" />
<path d="M32342 19393
L32436 19674
L32192 19674
" />
<path d="M32735 17240
L32735 17315
L32717 17352
L32698 17371
L32642 17409
L32567 17427
L32417 17427
L32379 17409
L32361 17390
L32342 17352
L32342 17277
L32361 17240
L32379 17221
L32417 17202
L32511 17202
L32548 17221
L32567 17240
L32586 17277
L32586 17352
L32567 17390
L32548 17409
L32511 17427
" />
<path d="M32567 16977
L32586 17015
L32604 17034
L32642 17052
L32661 17052
L32698 17034
L32717 17015
L32735 16977
L32735 16902
L32717 16865
L32698 16846
L32661 16827
L32642 16827
L32604 16846
L32586 16865
L32567 16902
L32567 16977
L32548 17015
L32529 17034
L32492 17052
L32417 17052
L32379 17034
L32361 17015
L32342 16977
L32342 16902
L32361 16865
L32379 16846
L32417 16827
L32492 16827
L32529 16846
L32548 16865
L32567 16902
" />
<path d="M34086 19806
L34217 19618
" />
<path d="M34310 19806
L34310 19412
L34161 19412
L34123 19431
L34104 19449
L34086 19487
L34086 19543
L34104 19581
L34123 19599
L34161 19618
L34310 19618
" />
<path d="M33954 19412
L33711 19412
L33842 19562
L33786 19562
L33748 19581
L33729 19599
L33711 19637
L33711 19731
L33729 19768
L33748 19787
L33786 19806
L33898 19806
L33936 19787
L33954 19768
" />
<path d="M34235 17240
L34235 17315
L34217 17352
L34198 17371
L34142 17409
L34067 17427
L33917 17427
L33879 17409
L33861 17390
L33842 17352
L33842 17277
L33861 17240
L33879 17221
L33917 17202
L34011 17202
L34048 17221
L34067 17240
L34086 17277
L34086 17352
L34067 17390
L34048 17409
L34011 17427
" />
<path d="M34067 16977
L34086 17015
L34104 17034
L34142 17052
L34161 17052
L34198 17034
L34217 17015
L34235 16977
L34235 16902
L34217 16865
L34198 16846
L34161 16827
L34142 16827
L34104 16846
L34086 16865
L34067 16902
L34067 16977
L34048 17015
L34029 17034
L33992 17052
L33917 17052
L33879 17034
L33861 17015
L33842 16977
L33842 16902
L33861 16865
L33879 16846
L33917 16827
L33992 16827
L34029 16846
L34048 16865
L34067 16902
" />
<path d="M27836 14806
L27967 14618
" />
<path d="M28060 14806
L28060 14412
L27911 14412
L27873 14431
L27854 14449
L27836 14487
L27836 14543
L27854 14581
L27873 14599
L27911 14618
L28060 14618
" />
<path d="M27461 14806
L27686 14806
" />
<path d="M27573 14806
L27573 14412
L27611 14468
L27648 14506
L27686 14524
" />
<path d="M28479 13449
L28460 13431
L28423 13412
L28329 13412
L28292 13431
L28273 13449
L28254 13487
L28254 13524
L28273 13581
L28498 13806
L28254 13806
" />
<path d="M28086 13806
L28086 13412
" />
<path d="M28048 13656
L27936 13806
" />
<path d="M27936 13543
L28086 13693
" />
<path d="M27786 13449
L27767 13431
L27729 13412
L27636 13412
L27598 13431
L27579 13449
L27561 13487
L27561 13524
L27579 13581
L27804 13806
L27561 13806
" />
<path d="M35810 15056
L35810 14662
L35717 14662
L35661 14681
L35623 14718
L35604 14756
L35586 14831
L35586 14887
L35604 14962
L35623 14999
L35661 15037
L35717 15056
L35810 15056
" />
<path d="M35211 15056
L35436 15056
" />
<path d="M35323 15056
L35323 14662
L35361 14718
L35398 14756
L35436 14774
" />
<path d="M36514 17193
L36326 17193
" />
<path d="M36551 17306
L36420 16912
L36289 17306
" />
<path d="M31310 15056
L31310 14662
L31217 14662
L31161 14681
L31123 14718
L31104 14756
L31086 14831
L31086 14887
L31104 14962
L31123 14999
L31161 15037
L31217 15056
L31310 15056
" />
<path d="M30936 14699
L30917 14681
L30879 14662
L30786 14662
L30748 14681
L30729 14699
L30711 14737
L30711 14774
L30729 14831
L30954 15056
L30711 15056
" />
<path d="M30214 17193
L30026 17193
" />
<path d="M30251 17306
L30120 16912
L29989 17306
" />
<path d="M13410 25627
L13410 25017
" />
<path d="M13410 25017
L14630 25017
" />
<path d="M14630 25017
L14630 25627
" />
<path d="M13520 26127
L13520 28127
" />
<path d="M13520 28127
L14520 28127
" />
<path d="M14520 28127
L14520 26127
" />
<path d="M14520 26127
L13520 26127
" />
<path d="M33260 5947
L33260 7307
" />
<path d="M31780 5947
L31780 7307
" />
<path d="M18520 6127
L18520 8127
" />
<path d="M18630 5017
L18020 5017
" />
<path d="M17520 5127
L17520 6127
" />
<path d="M17520 6127
L18520 6127
" />
<path d="M18520 8127
L16520 8127
" />
<path d="M16520 8127
L16520 6127
" />
<path d="M18630 5017
L18630 5627
" />
<path d="M16520 5127
L17520 5127
" />
<path d="M16520 6127
L16520 5127
" />
<path d="M14520 17627
L14520 19627
" />
<path d="M14520 19627
L13520 19627
" />
<path d="M13520 19627
L13520 17627
" />
<path d="M13410 16517
L13410 17127
" />
<path d="M13520 17627
L14520 17627
" />
<path d="M14630 17127
L14630 16517
" />
<path d="M14630 16517
L13410 16517
" />
<path d="M27520 7627
L27520 6627
" />
<path d="M27630 8738
L27630 8127
" />
<path d="M27520 7627
L26520 7627
" />
<path d="M26410 8127
L26410 8738
" />
<path d="M26410 8738
L27630 8738
" />
<path d="M26520 7627
L26520 6627
" />
<path d="M26520 6627
L27520 6627
" />
<path d="M23503 8206
L23581 8206
" />
<path d="M24524 8206
L24453 8206
" />
<path d="M24526.7 8206.3 A786.653 786.653 0.0 0 0 24402.1 6935.53 " />
<path d="M24453.5 8029.53 A608.718 608.718 0.0 0 0 24453.1 7201.57 " />
<path d="M23629.1 6926.77 A782.385 782.385 0.0 0 0 23492.5 8201.27 " />
<path d="M23589.7 7208.66 A582.991 582.991 0.0 0 0 23582.1 8014.92 " />
<path d="M21003 8206
L21081 8206
" />
<path d="M22024 8206
L21953 8206
" />
<path d="M22026.7 8206.3 A786.653 786.653 0.0 0 0 21902.1 6935.53 " />
<path d="M21953.5 8029.53 A608.718 608.718 0.0 0 0 21953.1 7201.57 " />
<path d="M21129.1 6926.77 A782.385 782.385 0.0 0 0 20992.5 8201.27 " />
<path d="M21089.7 7208.66 A582.991 582.991 0.0 0 0 21082.1 8014.92 " />
<path d="M25467 17224
L25467 17724
" />
<path d="M22573 17224
L22573 17724
" />
<path d="M22573 32031
L22573 31531
" />
<path d="M25467 32031
L25467 31531
" />
<path d="M25467 17224
L22573 17224
" />
<path d="M25467 32031
L22573 32031
" />
<path d="M25467 17724
L25973 17724
" />
<path d="M28414 24777
L28256 24698
" />
<path d="M28256 24698
L28020 24658
" />
<path d="M28020 24658
L27823 24698
" />
<path d="M27823 24698
L27548 24855
" />
<path d="M27548 24855
L27390 25092
" />
<path d="M27390 25092
L27311 25328
" />
<path d="M27311 25328
L27311 27926
" />
<path d="M27311 27926
L27390 28202
" />
<path d="M27390 28202
L27508 28359
" />
<path d="M27508 28359
L27705 28517
" />
<path d="M27705 28517
L27941 28596
" />
<path d="M27941 28596
L28138 28596
" />
<path d="M28138 28596
L28335 28517
" />
<path d="M28335 28517
L28571 28320
" />
<path d="M28571 28320
L28689 28123
" />
<path d="M28689 28123
L28729 27926
" />
<path d="M28729 27887
L28729 25288
" />
<path d="M28729 25288
L28689 25131
" />
<path d="M28689 25131
L28571 24934
" />
<path d="M28571 24934
L28374 24737
" />
<path d="M28937 27883
L28918 28064
" />
<path d="M28918 28064
L28874 28221
" />
<path d="M28874 28221
L28788 28391
" />
<path d="M28788 28391
L28697 28505
" />
<path d="M28697 28505
L28559 28635
" />
<path d="M28559 28635
L28347 28749
" />
<path d="M28347 28749
L28111 28800
" />
<path d="M28111 28800
L27910 28800
" />
<path d="M27910 28800
L27634 28733
" />
<path d="M27634 28733
L27402 28576
" />
<path d="M27402 28576
L27256 28395
" />
<path d="M27256 28395
L27174 28229
" />
<path d="M27174 28229
L27111 28052
" />
<path d="M27111 28052
L27099 27879
" />
<path d="M27185 24989
L27272 24840
" />
<path d="M27272 24840
L27382 24714
" />
<path d="M27382 24714
L27512 24615
" />
<path d="M27512 24615
L27729 24497
" />
<path d="M27729 24497
L27914 24454
" />
<path d="M27914 24454
L28095 24446
" />
<path d="M28095 24446
L28276 24481
" />
<path d="M28276 24481
L28453 24556
" />
<path d="M28453 24556
L28638 24698
" />
<path d="M28638 24698
L28764 24836
" />
<path d="M28764 24836
L28855 24989
" />
<path d="M28855 24989
L28910 25158
" />
<path d="M28910 25158
L28937 25332
" />
<path d="M27103 27887
L27103 25347
" />
<path d="M27103 25347
L27118 25182
" />
<path d="M27118 25182
L27185 24989
" />
<path d="M28937 27887
L28937 25347
" />
<path d="M37437 10111
L37437 13143
" />
<path d="M37831 10111
L37831 13143
" />
<path d="M37831 13143
L34209 13143
" />
<path d="M34209 13143
L34209 10111
" />
<path d="M34209 10111
L37831 10111
" />
<path d="M29036 5649
L31004 5649
" />
<path d="M29039 5704
L31001 5704
" />
<path d="M29045 5759
L29982 5759
" />
<path d="M30057 5759
L30994 5759
" />
<path d="M29055 5814
L29827 5814
" />
<path d="M30213 5814
L30985 5814
" />
<path d="M29068 5870
L29761 5870
" />
<path d="M30279 5870
L30972 5870
" />
<path d="M29084 5925
L29719 5925
" />
<path d="M30321 5925
L30956 5925
" />
<path d="M29104 5980
L29691 5980
" />
<path d="M30349 5980
L30936 5980
" />
<path d="M29128 6035
L29674 6035
" />
<path d="M30366 6035
L30912 6035
" />
<path d="M29155 6090
L29666 6090
" />
<path d="M30373 6090
L30884 6090
" />
<path d="M29188 6145
L29667 6145
" />
<path d="M30373 6145
L30852 6145
" />
<path d="M29225 6200
L29677 6200
" />
<path d="M30363 6200
L30815 6200
" />
<path d="M29269 6255
L29696 6255
" />
<path d="M30344 6255
L30771 6255
" />
<path d="M29319 6311
L29727 6311
" />
<path d="M30313 6311
L30721 6311
" />
<path d="M29378 6366
L29773 6366
" />
<path d="M30267 6366
L30662 6366
" />
<path d="M29448 6421
L29847 6421
" />
<path d="M30193 6421
L30592 6421
" />
<path d="M29534 6476
L30505 6476
" />
<path d="M29648 6531
L30392 6531
" />
<path d="M29834 6586
L30206 6586
" />
<circle cx="30020.4" cy="6112.21" r="354.331" /> 
<circle cx="30020.4" cy="5620.08" r="999.016" /> 
<path d="M12020 1627
L11520 1127
" />
<path d="M11520 1127
L11520 627
" />
<path d="M11520 627
L12020 127
" />
<path d="M12020 127
L12520 627
" />
<path d="M12520 627
L12520 1127
" />
<path d="M12520 1127
L12020 1627
" />
</g>
<g style="fill:#000000; fill-opacity:0.0; 
stroke:#000000; stroke-width:98.4252; stroke-opacity:1; 
stroke-linecap:round; stroke-linejoin:round;">
<path d="M12020 6127
L12020 1627
" />
</g>
<g style="fill:#000000; fill-opacity:0.0; 
stroke:#000000; stroke-width:59.0551; stroke-opacity:1; 
stroke-linecap:round; stroke-linejoin:round;">
<path d="M10967 6224
L10967 6724
" />
<path d="M5073 6224
L5073 6724
" />
<path d="M5073 30531
L5073 30031
" />
<path d="M10967 30531
L10967 30031
" />
<path d="M10967 6224
L5073 6224
" />
<path d="M10967 30531
L5073 30531
" />
<path d="M10967 6724
L11473 6724
" />
<path d="M33020 18127
L33020 16127
" />
<path d="M33020 16127
L32020 16127
" />
<path d="M32020 16127
L32020 18127
" />
<path d="M32020 18127
L33020 18127
" />
<path d="M34520 18127
L34520 16127
" />
<path d="M34520 16127
L33520 16127
" />
<path d="M33520 16127
L33520 18127
" />
<path d="M33520 18127
L34520 18127
" />
<path d="M27020 14127
L29020 14127
" />
<path d="M29020 14127
L29020 13127
" />
<path d="M29020 13127
L27020 13127
" />
<path d="M27020 13127
L27020 14127
" />
<path d="M35520 16227
L35920 16527
" />
<path d="M35520 16227
L35120 16527
" />
<path d="M35120 16227
L35920 16227
" />
<path d="M35120 16527
L35920 16527
" />
<path d="M31020 16227
L31420 16527
" />
<path d="M31020 16227
L30620 16527
" />
<path d="M30620 16227
L31420 16227
" />
<path d="M30620 16527
L31420 16527
" />
<circle cx="1520.39" cy="32128" r="900" /> 
<circle cx="36520.4" cy="32128" r="900" /> 
<circle cx="36520.4" cy="5127.95" r="900" /> 
<circle cx="1520.39" cy="5127.95" r="900" /> 
<path d="M34123 22839
L36446 25162
" />
<path d="M36328 24650
L36131 24453
" />
<path d="M34517 24020
L34635 24138
" />
<path d="M35304 25201
L35226 25122
" />
<path d="M35698 23233
L35619 23154
" />
<path d="M35895 23429
L36052 23587
" />
<path d="M35501 23429
L35383 23311
" />
<path d="M35107 23429
L34911 23233
" />
<path d="M34320 22642
L34241 22563
" />
<path d="M34123 22839
L34005 22721
" />
<path d="M34123 23233
L33926 23036
" />
<path d="M33533 23429
L33493 23390
" />
<path d="M33926 23429
L33769 23272
" />
<path d="M32942 23233
L32824 23114
" />
<path d="M32745 23429
L32627 23311
" />
<path d="M35895 25398
L36013 25516
" />
<path d="M35304 24807
L35186 24689
" />
<path d="M36131 26382
L36210 26461
" />
<path d="M35304 25595
L35107 25398
" />
<path d="M35895 26579
L35974 26658
" />
<path d="M35107 25792
L34911 25595
" />
<path d="M35107 26185
L34950 26028
" />
<path d="M32942 24414
L32745 24217
" />
<path d="M32745 24610
L32627 24492
" />
<path d="M32942 25988
L32785 25831
" />
<path d="M32155 24807
L31997 24650
" />
<path d="M32745 26185
L33139 26579
" />
<path d="M32942 25988
L33336 26382
" />
<path d="M32155 24807
L33729 26382
" />
<path d="M32351 24610
L33729 25988
" />
<path d="M32745 24610
L33926 25792
" />
<path d="M35107 26185
L35304 26382
" />
<path d="M35107 25792
L35895 26579
" />
<path d="M35304 25595
L36092 26382
" />
<path d="M35304 25201
L35895 25792
" />
<path d="M35304 24807
L35895 25398
" />
<path d="M34320 22642
L34714 23036
" />
<path d="M35698 23233
L35895 23429
" />
<path d="M35501 23429
L35895 23823
" />
<path d="M36289 24610
L36682 25004
" />
<path d="M35107 23429
L36092 24414
" />
<path d="M34123 23233
L36092 25201
" />
<path d="M32942 24414
L33533 25004
" />
<path d="M32942 24020
L33533 24610
" />
<path d="M33926 23429
L34517 24020
" />
<path d="M32745 23429
L33729 24414
" />
<path d="M32942 23233
L33926 24217
" />
<path d="M33533 23429
L34123 24020
" />
<path d="M32430 28075
L32430 28311
" />
<path d="M33021 27642
L32706 28941
" />
<path d="M32706 28941
L32627 28941
" />
<path d="M32627 28941
L32470 28390
" />
<path d="M32470 28390
L32430 28390
" />
<path d="M32430 28390
L32233 28941
" />
<path d="M32233 28941
L32194 28941
" />
<path d="M32194 28941
L31879 27681
" />
<path d="M31879 27681
L31958 27681
" />
<path d="M31958 27681
L32233 28705
" />
<path d="M32233 28705
L32391 27996
" />
<path d="M32391 27996
L32470 27996
" />
<path d="M32470 27996
L32706 28705
" />
<path d="M32706 28705
L32942 27642
" />
<path d="M32942 27642
L33021 27642
" />
<path d="M34084 28233
L33493 28233
" />
<path d="M33493 28233
L33493 28311
" />
<path d="M33493 28311
L34044 28311
" />
<path d="M33454 27681
L33454 28941
" />
<path d="M33454 28941
L33375 28941
" />
<path d="M33375 28941
L33375 27681
" />
<path d="M33375 27681
L33454 27681
" />
<path d="M34044 27642
L34084 27642
" />
<path d="M34123 27642
L34123 28941
" />
<path d="M34123 28941
L34044 28941
" />
<path d="M34044 28941
L34044 27642
" />
<path d="M34477 27760
L34517 27721
" />
<path d="M34517 27721
L34674 27681
" />
<path d="M34674 27681
L34871 27642
" />
<path d="M34871 27642
L35147 27721
" />
<path d="M35147 27721
L35265 27839
" />
<path d="M35265 27839
L35304 28036
" />
<path d="M35304 28036
L35265 28193
" />
<path d="M35265 28193
L35107 28311
" />
<path d="M35107 28311
L34911 28390
" />
<path d="M34911 28390
L34753 28429
" />
<path d="M34753 28429
L34674 28508
" />
<path d="M34674 28508
L34635 28626
" />
<path d="M34635 28626
L34674 28744
" />
<path d="M34674 28744
L34792 28823
" />
<path d="M34792 28823
L34950 28823
" />
<path d="M34950 28823
L35147 28823
" />
<path d="M35147 28823
L35265 28784
" />
<path d="M35265 28784
L35344 28823
" />
<path d="M35344 28823
L35226 28902
" />
<path d="M35226 28902
L34989 28941
" />
<path d="M34989 28941
L34753 28941
" />
<path d="M34753 28941
L34596 28823
" />
<path d="M34596 28823
L34556 28626
" />
<path d="M34556 28626
L34556 28508
" />
<path d="M34556 28508
L34635 28390
" />
<path d="M34635 28390
L34832 28311
" />
<path d="M34832 28311
L35029 28233
" />
<path d="M35029 28233
L35186 28114
" />
<path d="M35186 28114
L35226 27996
" />
<path d="M35226 27996
L35147 27878
" />
<path d="M35147 27878
L34989 27760
" />
<path d="M34989 27760
L34753 27760
" />
<path d="M34753 27760
L34596 27799
" />
<path d="M34596 27799
L34477 27839
" />
<path d="M36092 27799
L36210 27799
" />
<path d="M36210 27799
L36367 27918
" />
<path d="M36367 27918
L36407 28114
" />
<path d="M36407 28114
L36407 28429
" />
<path d="M36407 28429
L36367 28626
" />
<path d="M36367 28626
L36289 28744
" />
<path d="M36289 28744
L36131 28823
" />
<path d="M36131 28823
L35974 28823
" />
<path d="M35974 28823
L35816 28705
" />
<path d="M35816 28705
L35737 28429
" />
<path d="M35737 28429
L35737 28114
" />
<path d="M35737 28114
L35816 27957
" />
<path d="M35816 27957
L35895 27878
" />
<path d="M35895 27878
L36052 27799
" />
<path d="M36092 27681
L36249 27721
" />
<path d="M36249 27721
L36367 27760
" />
<path d="M36367 27760
L36485 27957
" />
<path d="M36485 27957
L36525 28193
" />
<path d="M36525 28193
L36485 28626
" />
<path d="M36485 28626
L36367 28862
" />
<path d="M36367 28862
L36131 28941
" />
<path d="M36131 28941
L35855 28902
" />
<path d="M35855 28902
L35698 28666
" />
<path d="M35698 28666
L35659 28390
" />
<path d="M35659 28390
L35659 28114
" />
<path d="M35659 28114
L35737 27878
" />
<path d="M35737 27878
L35895 27721
" />
<path d="M35895 27721
L36092 27681
" />
<path d="M34753 25674
L34950 25516
" />
<path d="M34950 25516
L35107 25319
" />
<path d="M35107 25319
L35186 25122
" />
<path d="M35186 25122
L35186 24847
" />
<path d="M35186 24847
L35146 24611
" />
<path d="M35146 24611
L34989 24374
" />
<path d="M34989 24374
L34674 24138
" />
<path d="M34674 24138
L34359 24099
" />
<path d="M34359 24099
L34083 24099
" />
<path d="M34083 24099
L33808 24296
" />
<path d="M33808 24296
L33611 24571
" />
<path d="M33611 24571
L33532 24807
" />
<path d="M33532 24807
L33532 25083
" />
<path d="M33532 25083
L33650 25398
" />
<path d="M33650 25398
L33847 25595
" />
<path d="M33847 25595
L33965 25674
" />
<path d="M33965 25713
L33670 26599
" />
<path d="M33670 26599
L33335 26422
" />
<path d="M33335 26422
L32824 26815
" />
<path d="M32824 26815
L32430 26382
" />
<path d="M32430 26382
L32784 25870
" />
<path d="M32784 25870
L32587 25359
" />
<path d="M32587 25359
L32587 25280
" />
<path d="M32587 25280
L31957 25162
" />
<path d="M31957 25162
L31957 24571
" />
<path d="M31957 24571
L32587 24493
" />
<path d="M32587 24493
L32824 23941
" />
<path d="M32824 23941
L32469 23390
" />
<path d="M32469 23390
L32902 22996
" />
<path d="M32902 22996
L33414 23351
" />
<path d="M33414 23351
L33887 23154
" />
<path d="M33887 23154
L34044 22524
" />
<path d="M34044 22524
L34635 22524
" />
<path d="M34635 22524
L34753 23154
" />
<path d="M34753 23154
L35265 23351
" />
<path d="M35265 23351
L35816 22957
" />
<path d="M35816 22957
L36249 23390
" />
<path d="M36249 23390
L35855 23902
" />
<path d="M35855 23902
L36131 24493
" />
<path d="M36131 24493
L36761 24571
" />
<path d="M36761 24571
L36800 25122
" />
<path d="M36800 25122
L36170 25241
" />
<path d="M36170 25241
L35934 25870
" />
<path d="M35934 25870
L36288 26382
" />
<path d="M36288 26382
L35894 26815
" />
<path d="M35894 26815
L35383 26461
" />
<path d="M35383 26461
L35107 26579
" />
<path d="M35107 26579
L34753 25674
" />
</g>
<g style="fill:#000000; fill-opacity:0.0; 
stroke:#000000; stroke-width:0; stroke-opacity:1; 
stroke-linecap:round; stroke-linejoin:round;">
</g>
<g style="fill:#000000; fill-opacity:1.0; 
stroke:#000000; stroke-width:0; stroke-opacity:1; 
stroke-linecap:round; stroke-linejoin:round;">
<polyline style="fill-rule:evenodd;"
points="14420,25287
13620,25287
13620,25967
14420,25967
14420,25287
" /> 
</g>
<g style="fill:#000000; fill-opacity:1.0; 
stroke:#000000; stroke-width:680; stroke-opacity:1; 
stroke-linecap:round; stroke-linejoin:round;">
</g>
<g style="fill:#000000; fill-opacity:0.0; 
stroke:#000000; stroke-width:680; stroke-opacity:1; 
stroke-linecap:round; stroke-linejoin:round;">
<path d="M13960 26627
L14080 26627
" />
<path d="M13960 27627
L14080 27627
" />
</g>
<g style="fill:#000000; fill-opacity:0.0; 
stroke:#000000; stroke-width:0; stroke-opacity:1; 
stroke-linecap:round; stroke-linejoin:round;">
</g>
<g style="fill:#000000; fill-opacity:1.0; 
stroke:#000000; stroke-width:0; stroke-opacity:1; 
stroke-linecap:round; stroke-linejoin:round;">
<polyline style="fill-rule:evenodd;"
points="18360,5967
18360,5287
17680,5287
17680,5967
18360,5967
" /> 
</g>
<g style="fill:#000000; fill-opacity:1.0; 
stroke:#000000; stroke-width:680; stroke-opacity:1; 
stroke-linecap:round; stroke-linejoin:round;">
</g>
<g style="fill:#000000; fill-opacity:0.0; 
stroke:#000000; stroke-width:680; stroke-opacity:1; 
stroke-linecap:round; stroke-linejoin:round;">
<path d="M17020 5627
L17020 5627
" />
<path d="M18020 6627
L18020 6627
" />
<path d="M17020 6627
L17020 6627
" />
<path d="M18020 7627
L18020 7627
" />
<path d="M17020 7627
L17020 7627
" />
</g>
<g style="fill:#000000; fill-opacity:0.0; 
stroke:#000000; stroke-width:0; stroke-opacity:1; 
stroke-linecap:round; stroke-linejoin:round;">
</g>
<g style="fill:#000000; fill-opacity:1.0; 
stroke:#000000; stroke-width:0; stroke-opacity:1; 
stroke-linecap:round; stroke-linejoin:round;">
<polyline style="fill-rule:evenodd;"
points="14420,17467
14420,16787
13620,16787
13620,17467
14420,17467
" /> 
</g>
<g style="fill:#000000; fill-opacity:1.0; 
stroke:#000000; stroke-width:680; stroke-opacity:1; 
stroke-linecap:round; stroke-linejoin:round;">
</g>
<g style="fill:#000000; fill-opacity:0.0; 
stroke:#000000; stroke-width:680; stroke-opacity:1; 
stroke-linecap:round; stroke-linejoin:round;">
<path d="M14080 18127
L13960 18127
" />
<path d="M14080 19127
L13960 19127
" />
</g>
<g style="fill:#000000; fill-opacity:0.0; 
stroke:#000000; stroke-width:0; stroke-opacity:1; 
stroke-linecap:round; stroke-linejoin:round;">
</g>
<g style="fill:#000000; fill-opacity:1.0; 
stroke:#000000; stroke-width:0; stroke-opacity:1; 
stroke-linecap:round; stroke-linejoin:round;">
<polyline style="fill-rule:evenodd;"
points="26620,7727
26620,8527
27420,8527
27420,7727
26620,7727
" /> 
</g>
<g style="fill:#000000; fill-opacity:1.0; 
stroke:#000000; stroke-width:800; stroke-opacity:1; 
stroke-linecap:round; stroke-linejoin:round;">
</g>
<g style="fill:#000000; fill-opacity:0.0; 
stroke:#000000; stroke-width:800; stroke-opacity:1; 
stroke-linecap:round; stroke-linejoin:round;">
<path d="M27020 7127
L27020 7127
" />
</g>
<g style="fill:#000000; fill-opacity:0.0; 
stroke:#000000; stroke-width:0; stroke-opacity:1; 
stroke-linecap:round; stroke-linejoin:round;">
</g>
<g style="fill:#000000; fill-opacity:1.0; 
stroke:#000000; stroke-width:0; stroke-opacity:1; 
stroke-linecap:round; stroke-linejoin:round;">
<polyline style="fill-rule:evenodd;"
points="23626,7734
23626,8521
24414,8521
24414,7734
23626,7734
" /> 
<circle cx="24020.4" cy="7127.95" r="393.701" /> 
</g>
<g style="fill:#000000; fill-opacity:1.0; 
stroke:#000000; stroke-width:39.3701; stroke-opacity:1; 
stroke-linecap:round; stroke-linejoin:round;">
</g>
<g style="fill:#000000; fill-opacity:1.0; 
stroke:#000000; stroke-width:0; stroke-opacity:1; 
stroke-linecap:round; stroke-linejoin:round;">
<polyline style="fill-rule:evenodd;"
points="21126,7734
21126,8521
21914,8521
21914,7734
21126,7734
" /> 
<circle cx="21520.4" cy="7127.95" r="393.701" /> 
</g>
<g style="fill:#000000; fill-opacity:1.0; 
stroke:#000000; stroke-width:39.3701; stroke-opacity:1; 
stroke-linecap:round; stroke-linejoin:round;">
</g>
<g style="fill:#000000; fill-opacity:1.0; 
stroke:#000000; stroke-width:629.921; stroke-opacity:1; 
stroke-linecap:round; stroke-linejoin:round;">
</g>
<g style="fill:#000000; fill-opacity:0.0; 
stroke:#000000; stroke-width:629.921; stroke-opacity:1; 
stroke-linecap:round; stroke-linejoin:round;">
<path d="M25658 18127
L25382 18127
" />
<path d="M25658 19127
L25382 19127
" />
<path d="M25658 20127
L25382 20127
" />
<path d="M25658 21127
L25382 21127
" />
<path d="M25658 22127
L25382 22127
" />
<path d="M25658 23127
L25382 23127
" />
<path d="M25658 24127
L25382 24127
" />
<path d="M25658 25127
L25382 25127
" />
<path d="M25658 26127
L25382 26127
" />
<path d="M25658 27127
L25382 27127
" />
<path d="M25658 28127
L25382 28127
" />
<path d="M25658 29127
L25382 29127
" />
<path d="M25658 30127
L25382 30127
" />
<path d="M25658 31127
L25382 31127
" />
<path d="M22658 31127
L22382 31127
" />
<path d="M22658 30127
L22382 30127
" />
<path d="M22658 29127
L22382 29127
" />
<path d="M22658 28127
L22382 28127
" />
<path d="M22658 27127
L22382 27127
" />
<path d="M22658 26127
L22382 26127
" />
<path d="M22658 25127
L22382 25127
" />
<path d="M22658 24127
L22382 24127
" />
<path d="M22658 23127
L22382 23127
" />
<path d="M22658 22127
L22382 22127
" />
<path d="M22658 21127
L22382 21127
" />
<path d="M22658 20127
L22382 20127
" />
<path d="M22658 19127
L22382 19127
" />
<path d="M22658 18127
L22382 18127
" />
</g>
<g style="fill:#000000; fill-opacity:1.0; 
stroke:#000000; stroke-width:0; stroke-opacity:1; 
stroke-linecap:round; stroke-linejoin:round;">
<circle cx="28020.4" cy="27589" r="295.5" /> 
</g>
<g style="fill:#000000; fill-opacity:1.0; 
stroke:#000000; stroke-width:39.3701; stroke-opacity:1; 
stroke-linecap:round; stroke-linejoin:round;">
</g>
<g style="fill:#000000; fill-opacity:1.0; 
stroke:#000000; stroke-width:0; stroke-opacity:1; 
stroke-linecap:round; stroke-linejoin:round;">
<circle cx="28020.4" cy="25667" r="295.5" /> 
</g>
<g style="fill:#000000; fill-opacity:1.0; 
stroke:#000000; stroke-width:39.3701; stroke-opacity:1; 
stroke-linecap:round; stroke-linejoin:round;">
</g>
<g style="fill:#000000; fill-opacity:1.0; 
stroke:#000000; stroke-width:0; stroke-opacity:1; 
stroke-linecap:round; stroke-linejoin:round;">
<circle cx="35685.4" cy="10762" r="177" /> 
</g>
<g style="fill:#000000; fill-opacity:1.0; 
stroke:#000000; stroke-width:39.3701; stroke-opacity:1; 
stroke-linecap:round; stroke-linejoin:round;">
</g>
<g style="fill:#000000; fill-opacity:1.0; 
stroke:#000000; stroke-width:0; stroke-opacity:1; 
stroke-linecap:round; stroke-linejoin:round;">
<circle cx="35685.4" cy="12494" r="177" /> 
</g>
<g style="fill:#000000; fill-opacity:1.0; 
stroke:#000000; stroke-width:39.3701; stroke-opacity:1; 
stroke-linecap:round; stroke-linejoin:round;">
</g>
<g style="fill:#000000; fill-opacity:1.0; 
stroke:#000000; stroke-width:0; stroke-opacity:1; 
stroke-linecap:round; stroke-linejoin:round;">
<polyline style="fill-rule:evenodd;"
points="30276,4872
29764,4872
29764,5383
30276,5383
30276,4872
" /> 
<circle cx="30020.4" cy="6112.21" r="255.906" /> 
</g>
<g style="fill:#000000; fill-opacity:1.0; 
stroke:#000000; stroke-width:39.3701; stroke-opacity:1; 
stroke-linecap:round; stroke-linejoin:round;">
</g>
<g style="fill:#000000; fill-opacity:1.0; 
stroke:#000000; stroke-width:629.921; stroke-opacity:1; 
stroke-linecap:round; stroke-linejoin:round;">
</g>
<g style="fill:#000000; fill-opacity:0.0; 
stroke:#000000; stroke-width:629.921; stroke-opacity:1; 
stroke-linecap:round; stroke-linejoin:round;">
<path d="M11158 9627
L10882 9627
" />
<path d="M11158 10627
L10882 10627
" />
<path d="M11158 11627
L10882 11627
" />
<path d="M11158 12627
L10882 12627
" />
<path d="M11158 13627
L10882 13627
" />
<path d="M11158 14627
L10882 14627
" />
<path d="M11158 15627
L10882 15627
" />
<path d="M11158 16627
L10882 16627
" />
<path d="M11158 17627
L10882 17627
" />
<path d="M11158 18627
L10882 18627
" />
<path d="M11158 19627
L10882 19627
" />
<path d="M11158 20627
L10882 20627
" />
<path d="M11158 21627
L10882 21627
" />
<path d="M11158 22627
L10882 22627
" />
<path d="M11158 23627
L10882 23627
" />
<path d="M11158 24627
L10882 24627
" />
<path d="M11158 25627
L10882 25627
" />
<path d="M11158 26627
L10882 26627
" />
<path d="M11158 27627
L10882 27627
" />
<path d="M11158 28627
L10882 28627
" />
<path d="M5158 28627
L4882 28627
" />
<path d="M5158 27627
L4882 27627
" />
<path d="M5158 26627
L4882 26627
" />
<path d="M5158 25627
L4882 25627
" />
<path d="M5158 24627
L4882 24627
" />
<path d="M5158 23627
L4882 23627
" />
<path d="M5158 22627
L4882 22627
" />
<path d="M5158 21627
L4882 21627
" />
<path d="M5158 20627
L4882 20627
" />
<path d="M5158 19627
L4882 19627
" />
<path d="M5158 18627
L4882 18627
" />
<path d="M5158 17627
L4882 17627
" />
<path d="M5158 16627
L4882 16627
" />
<path d="M5158 15627
L4882 15627
" />
<path d="M5158 14627
L4882 14627
" />
<path d="M5158 13627
L4882 13627
" />
<path d="M5158 12627
L4882 12627
" />
<path d="M5158 11627
L4882 11627
" />
<path d="M5158 10627
L4882 10627
" />
<path d="M5158 9627
L4882 9627
" />
</g>
<g style="fill:#000000; fill-opacity:1.0; 
stroke:#000000; stroke-width:0; stroke-opacity:1; 
stroke-linecap:round; stroke-linejoin:round;">
<circle cx="32520.4" cy="18628" r="393.5" /> 
</g>
<g style="fill:#000000; fill-opacity:1.0; 
stroke:#000000; stroke-width:39.3701; stroke-opacity:1; 
stroke-linecap:round; stroke-linejoin:round;">
</g>
<g style="fill:#000000; fill-opacity:1.0; 
stroke:#000000; stroke-width:0; stroke-opacity:1; 
stroke-linecap:round; stroke-linejoin:round;">
<circle cx="32520.4" cy="15628" r="393.5" /> 
</g>
<g style="fill:#000000; fill-opacity:1.0; 
stroke:#000000; stroke-width:39.3701; stroke-opacity:1; 
stroke-linecap:round; stroke-linejoin:round;">
</g>
<g style="fill:#000000; fill-opacity:1.0; 
stroke:#000000; stroke-width:0; stroke-opacity:1; 
stroke-linecap:round; stroke-linejoin:round;">
<circle cx="34020.4" cy="18628" r="393.5" /> 
</g>
<g style="fill:#000000; fill-opacity:1.0; 
stroke:#000000; stroke-width:39.3701; stroke-opacity:1; 
stroke-linecap:round; stroke-linejoin:round;">
</g>
<g style="fill:#000000; fill-opacity:1.0; 
stroke:#000000; stroke-width:0; stroke-opacity:1; 
stroke-linecap:round; stroke-linejoin:round;">
<circle cx="34020.4" cy="15628" r="393.5" /> 
</g>
<g style="fill:#000000; fill-opacity:1.0; 
stroke:#000000; stroke-width:39.3701; stroke-opacity:1; 
stroke-linecap:round; stroke-linejoin:round;">
</g>
<g style="fill:#000000; fill-opacity:1.0; 
stroke:#000000; stroke-width:0; stroke-opacity:1; 
stroke-linecap:round; stroke-linejoin:round;">
<circle cx="26520.4" cy="13628" r="393.5" /> 
</g>
<g style="fill:#000000; fill-opacity:1.0; 
stroke:#000000; stroke-width:39.3701; stroke-opacity:1; 
stroke-linecap:round; stroke-linejoin:round;">
</g>
<g style="fill:#000000; fill-opacity:1.0; 
stroke:#000000; stroke-width:0; stroke-opacity:1; 
stroke-linecap:round; stroke-linejoin:round;">
<circle cx="29520.4" cy="13628" r="393.5" /> 
</g>
<g style="fill:#000000; fill-opacity:1.0; 
stroke:#000000; stroke-width:39.3701; stroke-opacity:1; 
stroke-linecap:round; stroke-linejoin:round;">
</g>
<g style="fill:#000000; fill-opacity:1.0; 
stroke:#000000; stroke-width:0; stroke-opacity:1; 
stroke-linecap:round; stroke-linejoin:round;">
<circle cx="35520.4" cy="17128" r="393.5" /> 
</g>
<g style="fill:#000000; fill-opacity:1.0; 
stroke:#000000; stroke-width:39.3701; stroke-opacity:1; 
stroke-linecap:round; stroke-linejoin:round;">
</g>
<g style="fill:#000000; fill-opacity:1.0; 
stroke:#000000; stroke-width:0; stroke-opacity:1; 
stroke-linecap:round; stroke-linejoin:round;">
<polyline style="fill-rule:evenodd;"
points="35913,15234
35126,15234
35126,16021
35913,16021
35913,15234
" /> 
<circle cx="31020.4" cy="17128" r="393.5" /> 
</g>
<g style="fill:#000000; fill-opacity:1.0; 
stroke:#000000; stroke-width:39.3701; stroke-opacity:1; 
stroke-linecap:round; stroke-linejoin:round;">
</g>
<g style="fill:#000000; fill-opacity:1.0; 
stroke:#000000; stroke-width:0; stroke-opacity:1; 
stroke-linecap:round; stroke-linejoin:round;">
<polyline style="fill-rule:evenodd;"
points="31413,15234
30626,15234
30626,16021
31413,16021
31413,15234
" /> 
<circle cx="1520.39" cy="32128" r="800" /> 
</g>
<g style="fill:#000000; fill-opacity:1.0; 
stroke:#000000; stroke-width:39.3701; stroke-opacity:1; 
stroke-linecap:round; stroke-linejoin:round;">
</g>
<g style="fill:#000000; fill-opacity:1.0; 
stroke:#000000; stroke-width:0; stroke-opacity:1; 
stroke-linecap:round; stroke-linejoin:round;">
<circle cx="36520.4" cy="32128" r="800" /> 
</g>
<g style="fill:#000000; fill-opacity:1.0; 
stroke:#000000; stroke-width:39.3701; stroke-opacity:1; 
stroke-linecap:round; stroke-linejoin:round;">
</g>
<g style="fill:#000000; fill-opacity:1.0; 
stroke:#000000; stroke-width:0; stroke-opacity:1; 
stroke-linecap:round; stroke-linejoin:round;">
<circle cx="36520.4" cy="5127.95" r="800" /> 
</g>
<g style="fill:#000000; fill-opacity:1.0; 
stroke:#000000; stroke-width:39.3701; stroke-opacity:1; 
stroke-linecap:round; stroke-linejoin:round;">
</g>
<g style="fill:#000000; fill-opacity:1.0; 
stroke:#000000; stroke-width:0; stroke-opacity:1; 
stroke-linecap:round; stroke-linejoin:round;">
<circle cx="1520.39" cy="5127.95" r="800" /> 
</g>
<g style="fill:#000000; fill-opacity:1.0; 
stroke:#000000; stroke-width:39.3701; stroke-opacity:1; 
stroke-linecap:round; stroke-linejoin:round;">
</g> 
</svg>
